<?xml version="1.0" standalone="no"?>
<!DOCTYPE svg PUBLIC "-//W3C//DTD SVG 1.1//EN" "http://www.w3.org/Graphics/SVG/1.1/DTD/svg11.dtd" >
<svg xmlns="http://www.w3.org/2000/svg">
<metadata>Generated by IcoMoon</metadata>
<defs>
<font id="icomoon" horiz-adv-x="1024">
<font-face units-per-em="1024" ascent="960" descent="-64" />
<missing-glyph horiz-adv-x="1024" />
<glyph unicode="&#x20;" horiz-adv-x="512" d="" />
<glyph unicode="&#xe900;" glyph-name="User1" d="M705.55 623.344c0-109.367-87.189-197.062-195.924-197.062s-195.922 87.694-195.922 197.062c0 109.409 87.188 197.020 195.922 197.020s195.924-87.611 195.924-197.020zM509.631 75.618c-159.707 0-296.074 25.316-296.074 126.594 0 101.32 135.492 127.562 296.074 127.562 159.707 0 296.071-25.321 296.071-126.641 0-101.274-135.489-127.516-296.071-127.516zM789.276 619.789c0-55.753-16.631-107.69-45.805-150.867-2.998-4.443-0.33-10.438 4.962-11.36 7.294-1.258 14.839-1.97 22.505-2.18 76.479-2.012 145.119 47.494 164.082 122.026 28.090 110.709-54.388 210.099-159.414 210.099-11.418 0-22.337-1.216-32.968-3.395-1.457-0.335-2.998-1.006-3.831-2.306-1.001-1.593-0.251-3.731 0.749-5.114 31.549-44.476 49.72-98.72 49.72-156.903zM915.931 377.597c51.391-10.103 85.187-30.726 99.193-60.697 11.837-24.609 11.837-53.155 0-77.722-21.425-46.485-90.48-61.412-117.322-65.266-5.544-0.838-10.003 3.98-9.416 9.556 13.708 128.819-95.358 189.895-123.574 203.938-1.21 0.629-1.457 1.593-1.336 2.18 0.084 0.419 0.586 1.090 1.503 1.216 61.054 1.132 126.697-7.252 150.952-13.204zM253.076 455.375c7.668 0.209 15.171 0.88 22.506 2.18 5.293 0.922 7.96 6.917 4.959 11.36-29.174 43.177-45.803 95.115-45.803 150.867 0 58.184 18.171 112.427 49.721 156.903 1 1.383 1.709 3.521 0.75 5.114-0.834 1.258-2.418 1.97-3.834 2.306-10.669 2.18-21.589 3.395-33.008 3.395-105.026 0-187.505-99.39-159.373-210.099 18.963-74.532 87.605-124.039 164.082-122.026zM260.512 389.632c0.125-0.629-0.125-1.551-1.292-2.222-28.257-14.043-137.325-75.118-123.614-203.895 0.583-5.618-3.834-10.394-9.378-9.598-26.84 3.854-95.899 18.776-117.321 65.266-11.878 24.609-11.878 53.113 0 77.717 14.003 29.975 47.762 50.598 99.15 60.743 24.298 5.911 89.897 14.295 150.995 13.163 0.917-0.126 1.375-0.796 1.459-1.174z" />
<glyph unicode="&#xe901;" glyph-name="User" d="M705.55 623.344c0-109.367-87.189-197.062-195.924-197.062s-195.922 87.694-195.922 197.062c0 109.409 87.188 197.020 195.922 197.020s195.924-87.611 195.924-197.020zM509.631 75.618c-159.707 0-296.074 25.316-296.074 126.594 0 101.32 135.492 127.562 296.074 127.562 159.707 0 296.071-25.321 296.071-126.641 0-101.274-135.489-127.516-296.071-127.516zM789.276 619.789c0-55.753-16.631-107.69-45.805-150.867-2.998-4.443-0.33-10.438 4.962-11.36 7.294-1.258 14.839-1.97 22.505-2.18 76.479-2.012 145.119 47.494 164.082 122.026 28.090 110.709-54.388 210.099-159.414 210.099-11.418 0-22.337-1.216-32.968-3.395-1.457-0.335-2.998-1.006-3.831-2.306-1.001-1.593-0.251-3.731 0.749-5.114 31.549-44.476 49.72-98.72 49.72-156.903zM915.931 377.597c51.391-10.103 85.187-30.726 99.193-60.697 11.837-24.609 11.837-53.155 0-77.722-21.425-46.485-90.48-61.412-117.322-65.266-5.544-0.838-10.003 3.98-9.416 9.556 13.708 128.819-95.358 189.895-123.574 203.938-1.21 0.629-1.457 1.593-1.336 2.18 0.084 0.419 0.586 1.090 1.503 1.216 61.054 1.132 126.697-7.252 150.952-13.204zM253.076 455.375c7.668 0.209 15.171 0.88 22.506 2.18 5.293 0.922 7.96 6.917 4.959 11.36-29.174 43.177-45.803 95.115-45.803 150.867 0 58.184 18.171 112.427 49.721 156.903 1 1.383 1.709 3.521 0.75 5.114-0.834 1.258-2.418 1.97-3.834 2.306-10.669 2.18-21.589 3.395-33.008 3.395-105.026 0-187.505-99.39-159.373-210.099 18.963-74.532 87.605-124.039 164.082-122.026zM260.512 389.632c0.125-0.629-0.125-1.551-1.292-2.222-28.257-14.043-137.325-75.118-123.614-203.895 0.583-5.618-3.834-10.394-9.378-9.598-26.84 3.854-95.899 18.776-117.321 65.266-11.878 24.609-11.878 53.113 0 77.717 14.003 29.975 47.762 50.598 99.15 60.743 24.298 5.911 89.897 14.295 150.995 13.163 0.917-0.126 1.375-0.796 1.459-1.174z" />
<glyph unicode="&#xe902;" glyph-name="alert" d="M503.036 215.976c-27.809 0-50.538 22.48-50.538 50.286 0 27.809 22.279 50.286 50.037 50.286h0.501c27.809 0 50.286-22.477 50.286-50.286 0-27.805-22.477-50.286-50.286-50.286zM502.572 388.1c-20.82 0-37.716 16.896-37.716 37.716v222.211c0 20.818 16.896 37.714 37.716 37.714 20.816 0 37.712-16.896 37.712-37.714v-222.211c0-20.82-16.896-37.716-37.712-37.716zM502.857 884.571c-235.689 0-427.429-191.74-427.429-427.429s191.74-427.429 427.429-427.429c235.688 0 427.429 191.74 427.429 427.429s-191.74 427.429-427.429 427.429zM502.857-45.714c-277.275 0-502.857 225.584-502.857 502.857 0 277.275 225.582 502.857 502.857 502.857s502.857-225.582 502.857-502.857c0-277.274-225.584-502.857-502.857-502.857z" />
<glyph unicode="&#xe904;" glyph-name="blacksmile" d="M416.467 527.669h-158.655c0 54.672 35.586 99.159 79.328 99.159s79.327-44.487 79.327-99.159zM686.178 626.828c-43.743 0-79.327-44.487-79.327-99.159h158.653c0 54.672-35.586 99.159-79.327 99.159zM866.684 93.316c95.892 95.886 148.701 223.386 148.701 358.993 0 135.605-52.809 263.105-148.701 358.991-95.886 95.892-223.386 148.701-358.993 148.701-135.605 0-263.105-52.808-358.991-148.701-95.892-95.886-148.701-223.385-148.701-358.991 0-135.607 52.808-263.107 148.701-358.993 95.886-95.892 223.385-148.701 358.991-148.701s263.107 52.809 358.993 148.701zM936.058 452.309c0-236.197-192.169-428.367-428.367-428.367-236.195 0-428.364 192.169-428.364 428.367 0 236.195 192.169 428.364 428.364 428.364 236.197 0 428.367-192.169 428.367-428.364zM778.581 334.277l-69.782 37.742c-0.632-1.176-65.408-118.030-201.108-118.030-55.788 0-106.228 19.367-149.914 57.563-34.013 29.735-51.117 60.314-51.192 60.467l-69.782-37.742c3.533-6.512 88.436-159.614 270.887-159.614 182.453 0 267.357 153.102 270.889 159.614z" />
<glyph unicode="&#xe905;" glyph-name="Calender" d="M297.472 960h429.107c158.157 0 246.221-91.136 246.221-247.296v-528.896c0-158.72-88.064-247.808-246.221-247.808h-429.107c-155.648 0-246.272 89.088-246.272 247.808v528.896c0 156.16 90.624 247.296 246.272 247.296zM311.296 721.408v0.512h153.037c22.067 0 39.987-17.92 39.987-39.885 0-22.579-17.92-40.499-39.987-40.499h-153.037c-22.067 0-39.936 17.92-39.936 39.936s17.869 39.936 39.936 39.936zM311.296 410.112h401.408c22.016 0 39.936 17.92 39.936 39.936s-17.92 39.987-39.936 39.987h-401.408c-22.067 0-39.936-17.971-39.936-39.987s17.869-39.936 39.936-39.936zM311.296 176.128h401.408c20.429 2.048 35.84 19.507 35.84 39.936 0 20.992-15.411 38.4-35.84 40.448h-401.408c-15.36 1.536-30.208-5.632-38.4-18.944-8.192-12.8-8.192-29.696 0-43.008 8.192-12.8 23.040-20.48 38.4-18.432z" />
<glyph unicode="&#xe906;" glyph-name="Chart" d="M272.896 960h478.157c174.131 0 272.435-98.765 272.947-272.896v-478.208c0-174.080-98.816-272.896-272.947-272.896h-478.157c-174.131 0-272.896 98.816-272.896 272.896v478.208c0 174.131 98.765 272.896 272.896 272.896zM514.509 147.968c22.067 0 40.448 16.384 42.496 38.4v521.728c2.048 15.872-5.581 31.795-19.405 40.448-14.387 8.704-31.795 8.704-45.568 0-13.875-8.653-21.504-24.576-20.019-40.448v-521.728c2.611-22.016 20.992-38.4 42.496-38.4zM750.080 147.968c21.504 0 39.885 16.384 42.496 38.4v167.936c1.485 16.435-6.144 31.744-20.019 40.448-13.773 8.704-31.181 8.704-45.517 0-13.875-8.704-21.504-24.013-19.456-40.448v-167.936c2.048-22.016 20.429-38.4 42.496-38.4zM318.413 186.368c-2.048-22.016-20.429-38.4-42.496-38.4-22.016 0-40.448 16.384-42.445 38.4v353.792c-1.536 15.923 6.093 31.744 19.968 40.448 13.773 8.704 31.232 8.704 45.056 0 13.773-8.704 21.504-24.525 19.917-40.448v-353.792z" />
<glyph unicode="&#xe907;" glyph-name="Chat" d="M0 447.232c0 269.715 215.552 512.768 513.024 512.768 290.816 0 510.976-238.438 510.976-511.231 0-316.376-258.048-512.769-512-512.769-83.968 0-177.152 22.564-251.904 66.662-26.112 15.892-48.128 27.689-76.288 18.458l-103.424-30.766c-26.112-8.202-49.664 12.308-41.984 39.997l34.304 114.857c5.632 15.898 4.608 32.819-3.584 46.152-44.032 81.019-69.12 169.728-69.12 255.872zM445.44 447.232c0-36.408 29.184-65.633 65.536-66.15 36.352 0 65.536 29.742 65.536 65.638 0 36.405-29.184 65.633-65.536 65.633-35.84 0.513-65.536-29.228-65.536-65.121zM681.472 446.72c0-35.896 29.184-65.638 65.536-65.638s65.536 29.742 65.536 65.638c0 36.405-29.184 65.633-65.536 65.633s-65.536-29.228-65.536-65.633zM274.944 381.082c-35.84 0-65.536 29.742-65.536 65.638 0 36.405 29.184 65.633 65.536 65.633s65.536-29.228 65.536-65.633c0-35.896-29.184-65.121-65.536-65.638z" />
<glyph unicode="&#xe908;" glyph-name="Clock" d="M217.239 63.001l-50.088-77.070c-9.695-15.024-5.494-35.062 9.533-44.757 5.494-3.551 11.473-5.169 17.612-5.169 10.664 0 21.006 5.169 27.145 14.705l48.958 75.293c70.123-41.685 151.881-65.761 239.132-65.761 87.413 0 169.169 24.076 239.133 65.921l48.796-75.293c6.14-9.535 16.646-14.705 27.148-14.705 5.976 0 12.116 1.618 17.609 5.169 15.028 9.695 19.231 29.729 9.535 44.757l-49.926 77.070c107.287 85.799 176.275 217.805 176.275 365.65 0 258.36-210.207 468.57-468.57 468.57-258.36 0-468.57-210.207-468.57-468.57 0-147.841 68.993-279.847 176.279-365.81v0zM509.53 832.753c222.814 0 403.943-181.128 403.943-403.943s-181.129-403.939-403.943-403.939c-222.813 0-403.941 181.125-403.941 403.939s181.128 403.943 403.941 403.943v0zM617.447 291.303c6.14-5.333 13.734-7.918 21.328-7.918 9.048 0 17.936 3.715 24.4 10.99 11.792 13.41 10.338 33.767-3.072 45.56l-118.272 103.571v259.978c0 17.774-14.545 32.315-32.317 32.315s-32.313-14.541-32.313-32.315v-274.679c0-9.372 4.039-18.26 10.985-24.4l129.262-113.103zM105.596 791.869c8.403 0 16.805 3.233 23.106 9.695 38.456 39.263 82.082 72.063 129.423 97.592 15.672 8.403 21.651 27.952 13.249 43.788-8.403 15.672-27.952 21.651-43.788 13.249-53.318-28.599-102.114-65.277-145.254-109.389-12.442-12.766-12.28-33.283 0.485-45.725 6.46-6.142 14.701-9.209 22.779-9.209v0zM760.943 899.158c47.501-25.367 90.968-58.329 129.421-97.592 6.304-6.462 14.705-9.695 23.106-9.695 8.081 0 16.323 3.070 22.622 9.209 12.763 12.442 12.923 32.962 0.483 45.725-42.975 43.95-91.935 80.789-145.256 109.386-15.831 8.402-35.385 2.423-43.786-13.249-8.241-15.834-2.425-35.383 13.41-43.785v0z" />
<glyph unicode="&#xe909;" glyph-name="delete" d="M96.533 660l53.138-641.473c3.808-46.257 43.212-82.528 89.648-82.528h489.612c46.435 0 85.839 36.27 89.648 82.528l53.132 641.473h-775.177zM334.095 55.999c-15.703 0-28.916 12.22-29.912 28.126l-30 484.001c-1.026 16.552 11.542 30.79 28.066 31.816 17.138 1.202 30.762-11.514 31.816-28.066l30-484.003c1.062-17.135-12.5-31.874-29.97-31.874zM514.123 86.002c0-16.582-13.418-30.003-30-30.003s-30 13.421-30 30.003v483.998c0 16.582 13.418 30 30 30s30-13.418 30-30v-483.998zM694.063 568.124l-30-483.999c-0.986-15.749-14.112-28.87-31.816-28.064-16.525 1.024-29.093 15.264-28.066 31.812l30 484.001c1.026 16.552 15.529 28.594 31.816 28.066 16.524-1.026 29.092-15.264 28.066-31.816zM874.134 840h-180.001v30c0 49.628-40.372 90-90 90h-240c-49.628 0-90-40.372-90-90v-30h-180c-33.138 0-60-26.862-60-60 0-33.134 26.862-60 60-60 275.932 0 504.078 0 780.001 0 33.137 0 60 26.866 60 60 0 33.138-26.863 60-60 60zM634.133 840h-300v30c0 16.552 13.448 30 30 30h240c16.552 0 30-13.448 30-30v-30z" />
<glyph unicode="&#xe90a;" glyph-name="download" d="M503.022 960c-34.727 0-62.877-28.151-62.877-62.877v-450.044l-203.881 203.879-88.923-88.92 355.686-355.691 355.692 355.691-88.921 88.92-203.9-203.898v450.063c0 34.726-28.151 62.877-62.878 62.877zM125.754 331.226h-125.754v-251.511c0-69.454 56.302-125.753 125.754-125.753h754.525c69.454 0 125.758 56.298 125.758 125.753v251.511h-125.758v-251.511h-754.525v251.511z" />
<glyph unicode="&#xe90b;" glyph-name="edit" d="M632.375 788l-563.419-563.457c-2.835-2.847-4.881-6.438-5.856-10.295l-62.45-250.655c-1.868-7.55 0.349-15.572 5.856-21.081 4.167-4.164 9.844-6.472 15.651-6.472 1.779 0 3.598 0.218 5.369 0.662l250.659 62.464c3.907 0.969 7.456 3.011 10.291 5.844l563.465 563.421-219.565 219.569zM991.519 864.843l-62.717 62.717c-41.916 41.917-114.975 41.877-156.843 0l-76.827-76.825 219.559-219.561 76.827 76.825c20.937 20.931 32.474 48.789 32.474 78.418s-11.537 57.487-32.474 78.425z" />
<glyph unicode="&#xe90c;" glyph-name="envelop" d="M764.877 908.8c68.659 0 134.707-27.136 183.296-75.827 48.64-48.589 75.827-114.125 75.827-182.733v-404.48c0-142.848-116.224-258.56-259.123-258.56h-505.805c-142.899 0-259.072 115.712-259.072 258.56v404.48c0 142.848 115.661 258.56 259.072 258.56h505.805zM846.331 573.935l4.096 4.096c12.237 14.848 12.237 36.352-0.563 51.2-7.117 7.629-16.896 12.288-27.085 13.312-10.752 0.563-20.992-3.072-28.723-10.24l-230.861-184.32c-29.696-24.627-72.242-24.627-102.398 0l-230.4 184.32c-15.923 11.776-37.939 10.24-51.2-3.584-13.824-13.824-15.36-35.84-3.635-51.2l6.707-6.656 232.96-181.758c28.672-22.528 63.437-34.816 99.838-34.816 36.301 0 71.68 12.288 100.301 34.816l230.963 184.83z" />
<glyph unicode="&#xe90d;" glyph-name="Filter" d="M733.269 358.542c118.062 0 214.033-94.731 214.033-211.268 0-116.474-95.972-211.274-214.033-211.274-118.057 0-214.030 94.8-214.030 211.274 0 116.537 95.973 211.268 214.030 211.268zM733.269 259.447c-62.709 0-113.64-50.273-113.64-112.174 0-61.838 50.931-112.179 113.64-112.179 62.714 0 113.641 50.341 113.641 112.179 0 61.901-50.927 112.174-113.641 112.174zM518.665 196.841c27.708 0 50.195-22.198 50.195-49.55s-22.488-49.545-50.195-49.545h-411.534c-27.708 0-50.195 22.192-50.195 49.545s22.487 49.55 50.195 49.55h411.534zM270.921 960c118.059 0 214.032-94.801 214.032-211.272s-95.973-211.272-214.032-211.272c-117.992 0-214.032 94.802-214.032 211.272s96.040 211.272 214.032 211.272zM270.921 860.904c-62.644 0-113.642-50.34-113.642-112.176s50.999-112.176 113.642-112.176c62.71 0 113.642 50.34 113.642 112.176s-50.931 112.176-113.642 112.176zM897.126 798.263c27.711 0 50.199-22.197 50.199-49.548s-22.488-49.547-50.199-49.547h-411.599c-27.708 0-50.195 22.197-50.195 49.547s22.488 49.548 50.195 49.548h411.599z" />
<glyph unicode="&#xe90f;" glyph-name="Heart" d="M709.12 934.392c32.307 0 64.563-4.557 95.232-14.848 188.979-61.44 257.075-268.8 200.192-450.048-32.256-92.623-84.992-177.154-154.061-246.223-98.867-95.744-207.36-180.736-324.147-253.952l-12.8-7.731-13.311 8.243c-117.197 72.704-226.304 157.696-326.093 253.952-68.608 69.069-121.395 153.088-154.163 245.711-57.856 181.248 10.24 388.608 201.267 451.123 14.848 5.12 30.157 8.704 45.517 10.701h6.144c14.387 2.099 28.672 3.072 43.008 3.072h5.632c32.256-0.973 63.488-6.605 93.747-16.896h3.021c2.048-0.973 3.584-2.048 4.608-3.021 11.315-3.635 22.016-7.731 32.256-13.363l19.456-8.704c4.701-2.507 9.978-6.339 14.539-9.65 2.889-2.098 5.491-3.987 7.477-5.198 0.836-0.493 1.684-0.989 2.541-1.488 4.39-2.563 8.963-5.232 12.818-8.188 56.883 43.469 125.952 67.021 197.12 66.509zM845.312 565.752c20.992 0.563 38.912 17.408 40.448 38.963v6.093c1.536 71.731-41.933 136.704-108.032 161.792-20.992 7.219-44.032-4.096-51.712-25.6-7.168-21.504 4.096-45.056 25.6-52.685 32.819-12.288 54.784-44.595 54.784-80.384v-1.587c-0.973-11.725 2.56-23.040 9.728-31.744s17.92-13.773 29.184-14.848z" />
<glyph unicode="&#xe910;" glyph-name="HeartPressure" d="M462.861 296.73c-14.72-8.896-29.931-17.63-46.072-26.364-258.417 143.748-384.077 280.317-384.077 417.491 0 112.166 79.112 196.757 184 196.757 72.942 0.559 142.005-32.799 186.911-90.282 3.057-4.396 8.073-7.018 13.428-7.018s10.372 2.621 13.427 7.018c44.924 57.48 113.997 90.837 186.944 90.282 60.471 0.54 117.022-29.878 149.901-80.633 3.166-4.987 8.777-7.878 14.677-7.563s11.17 3.787 13.79 9.083c2.62 5.296 2.176 11.592-1.156 16.471-38.865 60.008-105.715 95.979-177.212 95.353-76.198 0.298-148.975-31.634-200.354-87.911-51.378 56.276-124.154 88.209-200.355 87.911-121.522 0-216.711-100.799-216.711-229.468 0-150.112 131.155-296.036 401.398-446.325 4.872-2.53 10.278-3.853 15.767-3.861 5.603-0.004 11.115 1.408 16.030 4.105 16.043 8.93 31.599 17.86 46.643 26.953 7.735 4.689 10.202 14.758 5.513 22.49-4.689 7.735-14.754 10.202-22.49 5.513v0zM65.417 687.85c0-9.033 7.323-16.356 16.356-16.356s16.355 7.323 16.355 16.356c0 63.672 41.559 131.335 118.577 131.335 9.033 0 16.356 7.323 16.356 16.356s-7.323 16.355-16.356 16.355c-98.264 0-151.289-84.509-151.289-164.046zM719.663 770.125c-128.538 0.064-238.080-93.265-258.423-220.183-20.348-126.919 54.528-249.812 176.644-289.931v-62.332c0.073-23.266 12.54-44.732 32.713-56.329v-90.871c0-27.098 21.969-49.067 49.067-49.067s49.067 21.969 49.067 49.067v90.871c20.173 11.597 32.636 33.062 32.708 56.329v62.332c122.121 40.119 196.996 163.012 176.649 289.931-20.348 126.918-129.886 220.247-258.423 220.183v0zM736.017 50.479c0-9.033-7.322-16.354-16.354-16.354s-16.358 7.322-16.358 16.354v81.779h32.713v-81.779zM768.73 197.679c0-18.065-14.647-32.708-32.713-32.708h-32.713c-18.065 0-32.708 14.643-32.708 32.708v53.845c32.401-6.37 65.732-6.37 98.133 0v-53.845zM736.017 280.294v31.876c0 9.033-7.322 16.354-16.354 16.354s-16.358-7.322-16.358-16.354v-31.876c-113.378 8.235-203.55 98.406-211.785 211.786h31.876c9.033 0 16.354 7.322 16.354 16.355s-7.322 16.355-16.354 16.355h-31.876c8.235 113.381 98.406 203.553 211.785 211.788v-31.877c0-9.033 7.326-16.355 16.358-16.355s16.354 7.322 16.354 16.355v31.877c113.382-8.236 203.554-98.407 211.789-211.788h-31.876c-9.033 0-16.358-7.322-16.358-16.355s7.326-16.355 16.358-16.355h31.876c-8.235-113.38-98.406-203.552-211.789-211.786zM838.912 650.846l-86.259-86.259c-9.971 6.012-21.38 9.216-33.024 9.274-36.13 0-65.421-29.291-65.421-65.422s29.291-65.422 65.421-65.422c36.134 0 65.425 29.291 65.425 65.422-0.060 11.642-3.264 23.052-9.276 33.022l86.259 86.259c6.199 6.417 6.11 16.619-0.196 22.927-6.31 6.309-16.512 6.397-22.929 0.199v0zM719.629 475.729c-14.805-0.013-27.772 9.924-31.612 24.222-3.844 14.299 2.398 29.395 15.219 36.806 12.817 7.411 29.013 5.288 39.488-5.176 9.361-9.349 12.169-23.416 7.113-35.642-5.056-12.228-16.977-20.202-30.208-20.211v0z" />
<glyph unicode="&#xe911;" glyph-name="Home" d="M365.301-1.193v156.554c0 39.962 32.634 72.361 72.891 72.361h147.157c19.333 0 37.873-7.624 51.543-21.197 13.67-13.568 21.35-31.974 21.35-51.164v-156.554c-0.123-16.614 6.441-32.594 18.232-44.385s27.832-18.422 44.57-18.422h100.398c46.889-0.123 91.904 18.289 125.102 51.159s51.855 77.507 51.855 124.058v446c0 37.601-16.788 73.268-45.844 97.392l-341.535 270.787c-59.407 47.478-144.532 45.945-202.169-3.641l-333.741-267.146c-30.427-23.413-48.612-59.186-49.511-97.392v-445.544c0-97.024 79.226-175.672 176.956-175.672h98.105c34.762 0 63.012 27.843 63.264 62.351l1.375 0.456z" />
<glyph unicode="&#xe912;" glyph-name="ignoremessages" d="M251.243 192.857l-135.581-112.985c-16.235-13.528-40.883-1.983-40.883 19.149v684.474c0 41.3 33.479 74.779 74.779 74.779h697.937c41.3 0 74.779-33.479 74.779-74.779v-498.526c0-41.3-33.479-74.779-74.779-74.779h-548.379c-17.494 0-34.433-6.133-47.873-17.333zM299.116 135.411h548.379c82.599 0 149.558 66.959 149.558 149.558v498.526c0 82.599-66.959 149.558-149.558 149.558h-697.937c-82.599 0-149.558-66.959-149.558-149.558v-684.474c0-84.534 98.594-130.711 163.535-76.595l135.581 112.985z" />
<glyph unicode="&#xe913;" glyph-name="Login" d="M506.168 960h258.013c129.004 0 234.22-102.4 234.22-227.328v-569.344c0-125.44-105.216-227.328-235.279-227.328h-257.482c-129.006 0-234.748 101.888-234.748 226.816v245.76h327.801l-84.593-81.92c-15.862-15.36-15.862-40.448 0-55.808 7.93-7.68 18.505-11.264 29.077-11.264 10.045 0 20.623 3.584 28.554 11.264l154.383 148.992c7.931 7.168 12.16 17.408 12.16 28.16 0 10.24-4.229 20.48-12.16 27.648l-154.383 148.992c-15.862 15.36-41.77 15.36-57.631 0s-15.862-40.448 0-55.808l84.593-81.408h-327.801v244.736c0 125.44 105.742 227.84 235.277 227.84zM25.6 448.005c0 21.504 18.188 39.424 40.013 39.424h205.262v-78.848h-205.262c-21.825 0-40.013 17.408-40.013 39.424z" />
<glyph unicode="&#xe914;" glyph-name="Medium" d="M577.597 476.685c0-160.884-129.301-291.306-288.794-291.306s-288.804 130.451-288.804 291.306c0 160.854 129.301 291.315 288.804 291.315s288.794-130.431 288.794-291.315zM894.432 476.687c0-151.437-64.653-274.251-144.403-274.251s-144.404 122.813-144.404 274.251c0 151.437 64.641 274.251 144.391 274.251s144.403-122.774 144.403-274.251zM1024.064 476.689c0-135.651-22.733-245.685-50.79-245.685-28.051 0-50.771 110.005-50.771 245.685s22.733 245.686 50.771 245.686c28.045 0 50.79-109.995 50.79-245.686z" />
<glyph unicode="&#xe916;" d="M512 960c-288.426 0-512-211.272-512-496.64 0-149.263 61.174-278.251 160.796-367.339 8.364-7.487 13.412-17.974 13.754-29.196l2.788-91.076c0.89-29.051 30.898-47.953 57.482-36.213l101.624 44.863c8.614 3.795 18.268 4.506 27.346 2.006 46.7-12.842 96.402-19.685 148.208-19.685 288.426 0 512.002 211.275 512.002 496.642s-223.575 496.638-512 496.638v0z" />
<glyph unicode="&#xe917;" d="M204.541 318.127l150.4 238.611c23.924 37.96 75.154 47.412 111.050 20.49l119.62-89.716c10.976-8.234 26.078-8.188 37.005 0.106l161.557 122.608c21.564 16.364 49.706-9.442 35.28-32.342l-150.402-238.614c-23.925-37.96-75.156-47.411-111.050-20.486l-119.624 89.716c-10.974 8.231-26.076 8.186-37.004-0.108l-161.554-122.611c-21.564-16.36-49.712 9.445-35.278 32.346z" />
<glyph unicode="&#xe918;" glyph-name="Mutenotification" d="M691.991 224.582h170.757c29.086 0 52.662 23.575 52.662 52.662 0 13.964-5.548 27.359-15.425 37.236l-37.236 37.236c-13.964 13.965-21.811 32.908-21.811 52.659v119.19c0 163.918-132.883 296.799-296.802 296.799-164.264 0-297.289-133.425-296.796-297.69l0.352-117.407c0.061-20.278-8.149-39.703-22.734-53.788l-38.315-37.008c-10.2-9.854-15.961-23.426-15.961-37.604 0-28.877 23.408-52.285 52.283-52.285h171.135c0-82.26 66.685-148.945 148.946-148.945s148.945 66.686 148.945 148.945zM823.254 312.218l31.781-31.781h-623.231l31.956 30.864c25.524 24.655 39.892 58.649 39.786 94.134l-0.352 117.407c-0.4 133.352 107.591 241.668 240.941 241.668 133.073 0 240.947-107.874 240.947-240.944v-119.19c0-34.565 13.731-67.716 38.172-92.157zM449.954 224.582c0-51.414 41.677-93.091 93.091-93.091s93.091 41.677 93.091 93.091h-186.182z" />
<glyph unicode="&#xe919;" glyph-name="play" d="M916.050 419.226c34.135 19.707 34.135 68.976 0 88.683l-744.646 429.921c-34.134 19.707-76.8-4.927-76.8-44.341v-859.841c0-39.414 42.667-64.051 76.8-44.344l744.646 429.921z" />
<glyph unicode="&#xe91a;" glyph-name="Search" d="M0 516.1c0 245.159 196.625 443.9 439.175 443.9 116.478 0 228.181-46.768 310.541-130.015 82.365-83.248 128.635-196.155 128.635-313.885 0-245.159-196.628-443.902-439.176-443.902-242.55 0-439.175 198.743-439.175 443.902zM871.086 158.5l130.796-105.58h2.273c26.46-26.747 26.46-70.113 0-96.86-26.465-26.747-69.366-26.747-95.831 0l-108.544 124.401c-10.26 10.337-16.031 24.376-16.031 39.020s5.77 28.682 16.031 39.020c19.789 19.656 51.512 19.656 71.306 0z" />
<glyph unicode="&#xe91b;" glyph-name="Send" d="M960.246 424.829l-881.024-470.17c-24.748-13.216-52.922 10.813-46.069 39.248l105.084 401.286c3.427 13.216 13.707 22.829 26.652 24.829l503.716 35.245-503.716 35.242c-12.945 2.003-23.225 12.016-26.652 24.832l-105.084 401.685c-7.234 28.434 20.941 52.464 46.069 39.248l881.405-470.171c23.226-12.813 23.226-48.458-0.381-61.274z" />
<glyph unicode="&#xe91c;" glyph-name="alert1" d="M503.036 215.976c-27.809 0-50.538 22.48-50.538 50.286 0 27.809 22.279 50.286 50.037 50.286h0.501c27.809 0 50.286-22.477 50.286-50.286 0-27.805-22.477-50.286-50.286-50.286zM502.572 388.1c-20.82 0-37.716 16.896-37.716 37.716v222.211c0 20.818 16.896 37.714 37.716 37.714 20.816 0 37.712-16.896 37.712-37.714v-222.211c0-20.82-16.896-37.716-37.712-37.716zM502.857 884.571c-235.689 0-427.429-191.74-427.429-427.429s191.74-427.429 427.429-427.429c235.688 0 427.429 191.74 427.429 427.429s-191.74 427.429-427.429 427.429zM502.857-45.714c-277.275 0-502.857 225.584-502.857 502.857 0 277.275 225.582 502.857 502.857 502.857s502.857-225.582 502.857-502.857c0-277.274-225.584-502.857-502.857-502.857z" />
<glyph unicode="&#xe91d;" glyph-name="Setting" d="M284.928 218.848c11.603 0 23.205-1.392 34.555-4.272 34.252-8.736 63.993-30.432 81.625-59.568 11.45-18.288 17.782-39.648 17.987-61.44 0-31.2 26.448-56.208 58.976-56.208h63.485c32.374 0 58.822 24.864 58.976 55.536-0.205 33.888 13.779 66.096 39.366 90.336 25.232 23.904 60.496 38.256 95.76 37.296 23.104-0.528 45.347-6.432 64.957-16.992 28.221-15.312 64.243-6.192 80.56 20.208l33.642 53.136c7.498 12.24 9.677 27.6 5.674 41.76-3.952 14.16-13.882 26.448-27.258 33.696-31.312 17.088-53.658 44.64-62.928 77.664-9.171 32.4-4.154 67.776 13.731 96.912 11.651 19.2 28.726 35.376 49.197 46.512 27.462 15.216 37.088 49.248 21.126 75.745-0.656 1.056-1.264 2.16-1.773 3.312l-29.69 48.768c-16.163 26.64-52.138 35.808-80.358 20.592-30.499-17.088-66.778-21.984-101.635-13.296-34.81 8.544-63.994 29.424-82.182 58.896-11.654 18.432-17.987 39.888-18.189 61.728 0.454 16.416-5.626 31.152-16.669 41.952-10.995 10.752-26.448 16.848-42.307 16.848h-63.485c-15.709 0-30.4-5.808-41.498-16.272-11.046-10.512-17.075-24.48-16.973-39.36-1.066-70.176-61.61-126.672-134.925-126.672-23.509 0.24-46.157 6.24-65.816 17.376-27.613 14.88-63.688 5.712-79.851-20.928l-34.301-53.424c-15.707-25.825-6.080-59.953 21.888-75.361 41.496-22.752 67.387-65.184 67.387-110.688s-25.891-87.888-67.488-110.688c-27.816-15.264-37.443-49.2-21.331-75.6l31.971-52.224c7.904-13.488 20.824-23.232 35.771-27.216 14.896-3.936 31.312-2.256 44.992 4.944 20.115 11.184 43.523 16.992 67.032 16.992zM541.555-34.64h-63.485c-74.432 0-134.976 57.312-134.976 127.824-0.102 8.688-2.736 17.712-7.652 25.536-7.955 13.152-20.824 22.56-35.669 26.304-14.744 3.744-30.907 1.68-44.181-5.616-31.819-16.8-69.261-20.88-103.512-11.76-34.2 9.168-63.739 31.44-81.067 60.96l-31.667 51.696c-37.037 60.864-14.997 138.864 49.147 174 18.189 9.936 29.488 28.464 29.488 48.336s-11.299 38.448-29.488 48.384c-64.195 35.328-86.184 113.52-49.197 174.385l34.352 53.424c36.531 60.192 119.117 81.408 183.515 46.368 8.765-4.944 18.291-7.44 27.968-7.536 31.565 0 57.964 24.672 58.469 55.008-0.202 33.456 13.731 65.568 39.114 89.808 25.485 24.192 59.331 37.488 95.357 37.488h63.485c36.275 0 71.539-14.112 96.822-38.64 25.232-24.672 39.165-58.512 38.102-92.832 0.102-7.728 2.787-16.656 7.651-24.48 8.054-12.96 20.771-22.080 35.872-25.824 15.098-3.552 30.906-1.632 44.333 5.904 64.854 35.088 147.389 14.064 184.426-46.896l31.568-51.792c0.81-1.392 1.52-2.736 2.128-4.128 33.539-60.049 11.146-135.649-51.174-170.161-9.069-4.944-16.416-11.856-21.485-20.208-7.853-12.912-10.032-28.272-6.080-42.384 4.054-14.4 13.731-26.352 27.363-33.744 30.752-16.752 53.706-44.976 62.877-77.568 9.168-32.544 4.154-67.872-13.731-97.008l-33.645-53.088c-37.037-60.288-119.571-81.168-183.766-46.032-8.563 4.656-18.442 7.2-28.272 7.44h-0.304c-14.643 0-29.69-5.904-40.634-16.224-11.098-10.512-17.178-24.528-17.075-39.408-0.355-70.512-60.902-127.536-134.976-127.536zM510.026 553.219c-52.694 0-95.558-40.656-95.558-90.576s42.864-90.48 95.558-90.48c52.694 0 95.558 40.56 95.558 90.48s-42.864 90.576-95.558 90.576zM510.026 300.163c-94.595 0-171.558 72.864-171.558 162.48s76.963 162.576 171.558 162.576c94.595 0 171.558-72.96 171.558-162.576s-76.963-162.48-171.558-162.48z" />
<glyph unicode="&#xe91e;" glyph-name="Star" d="M776.236 359.253c-12.629-12.239-18.432-29.94-15.555-47.299l43.349-239.909c3.657-20.334-4.925-40.911-21.943-52.663-16.677-12.19-38.863-13.653-57.051-3.901l-215.966 112.64c-7.509 3.998-15.848 6.144-24.382 6.388h-13.214c-4.584-0.683-9.070-2.146-13.166-4.389l-216.015-113.176c-10.679-5.364-22.772-7.266-34.621-5.364-28.867 5.461-48.128 32.963-43.398 61.976l43.398 239.909c2.877 17.506-2.926 35.304-15.555 47.738l-176.079 170.667c-14.726 14.287-19.846 35.742-13.117 55.101 6.534 19.31 23.211 33.402 43.349 36.571l242.347 35.157c18.432 1.902 34.621 13.117 42.91 29.696l106.789 218.941c2.536 4.876 5.803 9.362 9.752 13.166l4.389 3.413c2.292 2.536 4.925 4.632 7.851 6.339l5.315 1.95 8.29 3.413h20.53c18.334-1.902 34.475-12.873 42.91-29.257l108.203-217.966c7.802-15.945 22.967-27.014 40.472-29.696l242.347-35.157c20.48-2.926 37.595-17.067 44.373-36.571 6.388-19.554 0.878-41.009-14.141-55.101l-182.37-172.617z" />
<glyph unicode="&#xe91f;" glyph-name="targetblack" d="M535.747 29.847c-186.99-44.863-376.688 71.423-421.552 258.412s71.422 376.687 258.411 421.551c186.99 44.864 376.687-71.421 421.551-258.411s-71.421-376.688-258.411-421.552zM380.763 675.812c-169.991-40.785-273.355-209.405-232.569-379.396s209.405-273.355 379.396-232.57c169.99 40.785 273.354 209.407 232.569 379.396-40.785 169.991-209.405 273.355-379.396 232.57zM507.196 148.84c-122.394-29.365-244.644 45.574-274.008 167.967-29.366 122.394 45.574 244.644 167.967 274.008 122.392 29.366 244.642-45.574 274.008-167.966 29.365-122.394-45.574-244.644-167.967-274.010zM409.311 556.817c-101.995-24.471-166.596-129.859-142.126-231.852 24.471-101.995 129.859-166.598 231.854-142.127 101.993 24.472 166.596 129.859 142.126 231.854s-129.859 166.598-231.854 142.126zM478.645 267.837c-57.796-13.868-112.599 19.726-126.465 77.522-13.867 57.798 19.726 112.599 77.524 126.465 57.796 13.867 112.599-19.726 126.465-77.522 13.867-57.798-19.726-112.599-77.524-126.465zM437.86 437.827c-37.397-8.973-60.655-46.912-51.682-84.309 8.973-37.399 46.912-60.655 84.311-51.682 37.397 8.973 60.655 46.912 51.682 84.309-8.973 37.399-46.912 60.655-84.311 51.682zM458.264 352.831c-3.399-0.815-10.199-2.446-14.414 0.137-8.431 5.168-10.879 15.369-5.71 23.799l193.808 316.163c5.168 8.431 15.369 10.879 23.799 5.71s10.877-15.367 5.71-23.798l-193.809-316.164c0.816-3.399-5.983-5.030-9.384-5.847v0zM737.065 689.387l-84.995-20.392c-10.199-2.448-18.63 2.721-21.077 12.921l-20.393 84.995c-0.815 3.399 0.953 11.015 0.138 14.414l90.443 147.543c5.983 5.031 12.783 6.663 19.583 8.294 7.616-1.769 12.648-7.752 14.279-14.552l16.313-67.996 67.996 16.314c6.8 1.631 14.416-0.137 19.446-6.121 1.631-6.8 3.264-13.599 1.495-21.215l-90.443-147.543c-3.401-0.816-9.384-5.847-12.784-6.663v0zM660.912 707.071l61.197 14.683 64.603 105.388-44.198-10.604c-10.199-2.448-18.63 2.721-21.077 12.92l-10.604 44.198-64.603-105.388 14.683-61.197z" />
<glyph unicode="&#xe921;" glyph-name="black-smile" d="M416.467 527.669h-158.655c0 54.672 35.586 99.159 79.328 99.159s79.327-44.487 79.327-99.159zM686.178 626.828c-43.743 0-79.327-44.487-79.327-99.159h158.653c0 54.672-35.586 99.159-79.327 99.159zM866.684 93.316c95.892 95.886 148.701 223.386 148.701 358.993 0 135.605-52.809 263.105-148.701 358.991-95.886 95.892-223.386 148.701-358.993 148.701-135.605 0-263.105-52.808-358.991-148.701-95.892-95.886-148.701-223.385-148.701-358.991 0-135.607 52.808-263.107 148.701-358.993 95.886-95.892 223.385-148.701 358.991-148.701s263.107 52.809 358.993 148.701zM936.058 452.309c0-236.197-192.169-428.367-428.367-428.367-236.195 0-428.364 192.169-428.364 428.367 0 236.195 192.169 428.364 428.364 428.364 236.197 0 428.367-192.169 428.367-428.364zM778.581 334.277l-69.782 37.742c-0.632-1.176-65.408-118.030-201.108-118.030-55.788 0-106.228 19.367-149.914 57.563-34.013 29.735-51.117 60.314-51.192 60.467l-69.782-37.742c3.533-6.512 88.436-159.614 270.887-159.614 182.453 0 267.357 153.102 270.889 159.614z" />
<glyph unicode="&#xe922;" glyph-name="Thermometer" d="M574.426 394.080h-61.356c-3.817 0-7.477 1.516-10.176 4.215s-4.215 6.357-4.215 10.174c0 3.817 1.516 7.475 4.215 10.174s6.359 4.215 10.176 4.215h61.356c3.817 0 7.477-1.516 10.176-4.215s4.215-6.357 4.215-10.174c0-3.817-1.516-7.475-4.215-10.174s-6.359-4.215-10.176-4.215zM574.426 516.919h-61.356c-3.817 0-7.477 1.516-10.176 4.215s-4.215 6.357-4.215 10.174c0 3.817 1.516 7.479 4.215 10.179 2.698 2.695 6.359 4.215 10.176 4.215h61.356c3.817 0 7.477-1.52 10.176-4.215 2.699-2.699 4.215-6.361 4.215-10.179s-1.516-7.475-4.215-10.174c-2.699-2.699-6.359-4.215-10.176-4.215zM574.426 639.739h-61.356c-3.817 0-7.477 1.516-10.176 4.215s-4.215 6.359-4.215 10.176c0 3.817 1.516 7.477 4.215 10.176s6.359 4.215 10.176 4.215h61.356c3.817 0 7.477-1.516 10.176-4.215s4.215-6.359 4.215-10.176c0-3.817-1.516-7.477-4.215-10.176s-6.359-4.215-10.176-4.215zM574.426 762.559h-61.356c-3.817 0-7.477 1.516-10.176 4.215s-4.215 6.359-4.215 10.175c0 3.817 1.516 7.477 4.215 10.176s6.359 4.215 10.176 4.215h61.356c3.817 0 7.477-1.516 10.176-4.215s4.215-6.359 4.215-10.176c0-3.816-1.516-7.477-4.215-10.175s-6.359-4.215-10.176-4.215zM733.721 793.667c-7.811-2.906-16.118-4.261-24.449-3.991-6.738-0.807-13.57-0.14-20.021 1.957-6.455 2.096-12.374 5.571-17.35 10.183s-8.889 10.252-11.468 16.527c-2.579 6.275-3.763 13.037-3.468 19.815-0.256 7.058 0.986 14.090 3.645 20.633s6.674 12.449 11.781 17.327c5.105 4.878 11.188 8.619 17.848 10.976 6.656 2.357 13.738 3.276 20.779 2.697 8.311 0.352 16.601-1.125 24.281-4.329l-5.087-20.435c-5.698 2.338-11.801 3.522-17.957 3.486-3.797 0.254-7.606-0.322-11.158-1.686-3.555-1.364-6.771-3.484-9.421-6.214-2.654-2.73-4.682-6.004-5.939-9.595-1.262-3.591-1.729-7.413-1.364-11.202-0.356-3.822 0.131-7.675 1.43-11.287s3.371-6.896 6.074-9.619c2.703-2.723 5.976-4.82 9.576-6.142 3.604-1.322 7.455-1.837 11.276-1.509 5.902-0.025 11.768 0.906 17.371 2.755l3.621-20.349zM645.243 890.553c-5.681 0-11.234 1.685-15.958 4.841s-8.405 7.642-10.579 12.891c-2.174 5.248-2.743 11.024-1.635 16.596s3.844 10.69 7.861 14.707c4.017 4.017 9.135 6.753 14.707 7.861s11.347 0.539 16.595-1.635c5.249-2.174 9.735-5.856 12.891-10.579s4.841-10.277 4.841-15.958c-0.003-7.617-3.030-14.921-8.416-20.307s-12.69-8.413-20.308-8.416v0zM645.243 933.61c-2.834 0-5.606-0.841-7.963-2.416s-4.194-3.813-5.279-6.432c-1.085-2.619-1.369-5.501-0.816-8.281s1.918-5.334 3.923-7.339c2.005-2.005 4.558-3.369 7.339-3.923s5.662-0.269 8.281 0.816c2.619 1.085 4.858 2.922 6.433 5.279s2.415 5.128 2.415 7.963c0.003 1.883-0.366 3.749-1.085 5.489s-1.775 3.322-3.106 4.654c-1.331 1.332-2.913 2.388-4.653 3.108s-3.606 1.089-5.489 1.087v-0.005zM464.484 217.973c-3.066 1.2-5.625 3.42-7.248 6.287s-2.209 6.201-1.662 9.449l0.085 0.508-0.098 321.482h-36.384v-322.379c0.263-1.978 0.1-3.994-0.478-5.902-0.589-2.097-1.647-4.030-3.092-5.657s-3.242-2.9-5.254-3.731c-16.078-6.287-29.456-17.994-37.824-33.096-8.368-15.098-11.201-32.649-8.011-49.615s12.205-32.285 25.487-43.315c13.282-11.031 29.998-17.076 47.262-17.093 17.264-0.020 33.993 5.992 47.299 16.99 13.305 11.002 22.352 26.305 25.579 43.262 3.227 16.962 0.431 34.517-7.905 49.635s-21.689 26.849-37.754 33.174h-0.001zM513.006 300.9v583.6c-0.055 20.043-8.056 39.246-22.248 53.399s-33.417 22.101-53.46 22.101c-20.043 0-39.268-7.948-53.46-22.101s-22.193-33.356-22.248-53.399v-583.604c-34.623-17.093-62.447-45.392-78.946-80.302-16.499-34.906-20.702-74.371-11.927-111.972s30.014-71.127 60.261-95.13c30.247-23.998 67.724-37.061 106.335-37.057 38.612 0 76.087 13.066 106.332 37.069s51.48 57.528 60.252 95.13c8.772 37.605 4.565 77.066-11.937 111.976-16.502 34.906-44.328 63.205-78.953 80.29v0zM437.294 46.24c-23.085-0.020-45.505 7.733-63.649 22.004-18.144 14.275-30.956 34.238-36.373 56.68-5.417 22.438-3.123 46.051 6.511 67.027 9.635 20.98 26.049 38.105 46.601 48.62v643.916c-0.022 6.176 1.176 12.295 3.524 18.007s5.802 10.904 10.161 15.279c4.359 4.375 9.54 7.846 15.243 10.214s11.819 3.588 17.995 3.588c6.176 0 12.291-1.219 17.995-3.588s10.884-5.84 15.244-10.214c4.359-4.375 7.812-9.567 10.161-15.279s3.546-11.831 3.525-18.007v-643.92c20.554-10.514 36.97-27.644 46.604-48.624 9.634-20.984 11.925-44.597 6.504-67.039s-18.237-42.406-36.386-56.676c-18.149-14.27-40.573-22.016-63.66-21.991v0.004zM455.537 584.487l-0.091 300.008c0.014 2.391-0.446 4.762-1.352 6.974s-2.24 4.225-3.926 5.921c-1.686 1.696-3.69 3.041-5.898 3.959s-4.576 1.391-6.967 1.391c-2.391 0-4.759-0.473-6.966-1.391s-4.212-2.263-5.899-3.959c-1.686-1.695-3.020-3.708-3.926-5.921s-1.365-4.583-1.351-6.974v-300.008h36.377z" />
<glyph unicode="&#xe923;" glyph-name="time" d="M290.048 883.2c-129.536 0-213.248-88.73-213.248-226.099v-418.202c0-137.37 83.712-226.099 213.248-226.099h443.802c129.587 0 213.35 88.73 213.35 226.099v418.202c0 137.37-83.712 226.099-213.299 226.099h-443.853zM733.85-64h-443.802c-173.517 0-290.048 121.754-290.048 302.899v418.202c0 181.146 116.531 302.899 290.048 302.899h443.853c173.517 0 290.099-121.754 290.099-302.899v-418.202c0-181.146-116.582-302.899-290.15-302.899v0zM685.568 306.289c-6.707 0-13.466 1.741-19.661 5.376l-173.618 103.578c-11.571 6.963-18.739 19.507-18.739 32.973v223.334c0 21.197 17.203 38.4 38.4 38.4s38.399-17.203 38.399-38.4v-201.523l154.931-92.314c18.176-10.906 24.166-34.458 13.312-52.685-7.219-12.032-19.968-18.739-33.024-18.739z" />
<glyph unicode="&#xe925;" glyph-name="Unfilchallenge" d="M691.999 477.798l-97.997-156.794-172.002 275.201v67.346l232.863 194.050h-292.863v-261.396l-286.628-458.604h-75.372v-60.001h1024v60.001h-119.373l-212.628 340.198zM833.874 137.6h-283.745l141.87 226.99 141.875-226.99zM422 797.6h67.138l-67.138-55.95v55.95zM392 530.996l166.623-266.594-79.249-126.802h-333.246l245.872 393.396z" />
<glyph unicode="&#xe926;" glyph-name="unfill-serach" d="M0 453.158c0 265.783 220.325 481.242 492.111 481.242 271.783 0 492.112-215.459 492.112-481.242 0-265.781-220.329-481.241-492.112-481.241-271.785 0-492.111 215.46-492.111 481.241zM908.421 453.158c0 224.845-186.388 407.118-416.31 407.118-229.923 0-416.312-182.273-416.312-407.118 0-224.847 186.39-407.119 416.312-407.119s416.31 182.272 416.31 407.119z" />
<glyph unicode="&#xe928;" glyph-name="Union" d="M700.003 159.996h229.291c39.052 0 70.712 31.659 70.712 70.712 0 18.754-7.449 36.738-20.711 50l-50 50c-18.754 18.754-29.289 44.187-29.289 70.709v160.048c0 220.104-178.431 398.535-398.538 398.535-220.571 0-399.195-179.161-398.533-399.732l0.473-157.652c0.082-27.23-10.943-53.312-30.527-72.23l-51.448-49.69c-13.697-13.23-21.432-31.454-21.432-50.498 0-38.772 31.432-70.203 70.204-70.203h229.798c0-110.457 89.541-200.002 199.999-200.002 110.46 0 200.002 89.544 200.002 200.002zM876.26 277.674l42.68-42.677h-836.867l42.911 41.446c34.273 33.102 53.566 78.749 53.423 126.4l-0.473 157.652c-0.537 179.061 144.471 324.506 323.533 324.506 178.685 0 323.537-144.852 323.537-323.535v-160.048c0-46.411 18.438-90.925 51.256-123.743zM625.003 159.996h-249.999c0-69.035 55.963-125.001 124.998-125.001 69.038 0 125.001 55.966 125.001 125.001z" />
<glyph unicode="&#xe929;" glyph-name="user" d="M712.013 343.282c-123.26 37.596-248.986 38.771-375.534 17.231-85.872-14.49-164.348-45.819-227.212-104.955-78.887-74.413-107.237-167.616-109.292-270.221-0.822-37.6 11.504-49.35 50.948-49.35 146.681 0 292.95 0 439.631 0 97.377 0 194.341 0 291.717 0 51.36 0 102.72-0.39 154.080 0 27.117 0 42.726 13.318 42.726 37.21 1.645 161.35-69.434 310.163-267.066 370.085zM78.041 10.79c9.039 103.782 51.77 186.413 149.557 237.715 62.452 32.902 130.657 45.824 200.915 49.741 100.253 5.875 200.094 1.958 294.181-36.422 114.637-46.995 167.635-133.939 178.323-251.034-275.286 0-548.104 0-822.977 0zM490.979 424.733c27.117 5.874 55.878 8.224 81.352 18.015 102.306 39.162 156.949 115.138 169.276 217.352 11.507 97.907-21.363 182.106-109.7 237.326-87.926 55.611-182.426 56.786-274.051 6.658-104.772-57.178-148.735-182.498-108.88-298.811 36.978-107.697 132.711-178.19 242.003-180.54zM489.335 864.92c102.307 0 177.494-74.017 177.494-174.273 0-45.821-13.555-87.333-43.139-123.754-73.135-90.466-204.614-87.724-273.64 6.266-25.885 35.246-38.211 74.409-37.8 117.488 0 101.431 73.546 174.273 177.085 174.273z" />
<glyph unicode="&#xe939;" glyph-name="Calender1" d="M297.472 960h429.107c158.157 0 246.221-91.136 246.221-247.296v-528.896c0-158.72-88.064-247.808-246.221-247.808h-429.107c-155.648 0-246.272 89.088-246.272 247.808v528.896c0 156.16 90.624 247.296 246.272 247.296zM311.296 721.408v0.512h153.037c22.067 0 39.987-17.92 39.987-39.885 0-22.579-17.92-40.499-39.987-40.499h-153.037c-22.067 0-39.936 17.92-39.936 39.936s17.869 39.936 39.936 39.936zM311.296 410.112h401.408c22.016 0 39.936 17.92 39.936 39.936s-17.92 39.987-39.936 39.987h-401.408c-22.067 0-39.936-17.971-39.936-39.987s17.869-39.936 39.936-39.936zM311.296 176.128h401.408c20.429 2.048 35.84 19.507 35.84 39.936 0 20.992-15.411 38.4-35.84 40.448h-401.408c-15.36 1.536-30.208-5.632-38.4-18.944-8.192-12.8-8.192-29.696 0-43.008 8.192-12.8 23.040-20.48 38.4-18.432z" />
<glyph unicode="&#xe944;" glyph-name="Chart1" d="M272.896 960h478.157c174.131 0 272.435-98.765 272.947-272.896v-478.208c0-174.080-98.816-272.896-272.947-272.896h-478.157c-174.131 0-272.896 98.816-272.896 272.896v478.208c0 174.131 98.765 272.896 272.896 272.896zM514.509 147.968c22.067 0 40.448 16.384 42.496 38.4v521.728c2.048 15.872-5.581 31.795-19.405 40.448-14.387 8.704-31.795 8.704-45.568 0-13.875-8.653-21.504-24.576-20.019-40.448v-521.728c2.611-22.016 20.992-38.4 42.496-38.4zM750.080 147.968c21.504 0 39.885 16.384 42.496 38.4v167.936c1.485 16.435-6.144 31.744-20.019 40.448-13.773 8.704-31.181 8.704-45.517 0-13.875-8.704-21.504-24.013-19.456-40.448v-167.936c2.048-22.016 20.429-38.4 42.496-38.4zM318.413 186.368c-2.048-22.016-20.429-38.4-42.496-38.4-22.016 0-40.448 16.384-42.445 38.4v353.792c-1.536 15.923 6.093 31.744 19.968 40.448 13.773 8.704 31.232 8.704 45.056 0 13.773-8.704 21.504-24.525 19.917-40.448v-353.792z" />
<glyph unicode="&#xe97e;" glyph-name="Chat1" d="M0 447.232c0 269.715 215.552 512.768 513.024 512.768 290.816 0 510.976-238.438 510.976-511.231 0-316.376-258.048-512.769-512-512.769-83.968 0-177.152 22.564-251.904 66.662-26.112 15.892-48.128 27.689-76.288 18.458l-103.424-30.766c-26.112-8.202-49.664 12.308-41.984 39.997l34.304 114.857c5.632 15.898 4.608 32.819-3.584 46.152-44.032 81.019-69.12 169.728-69.12 255.872zM445.44 447.232c0-36.408 29.184-65.633 65.536-66.15 36.352 0 65.536 29.742 65.536 65.638 0 36.405-29.184 65.633-65.536 65.633-35.84 0.513-65.536-29.228-65.536-65.121zM681.472 446.72c0-35.896 29.184-65.638 65.536-65.638s65.536 29.742 65.536 65.638c0 36.405-29.184 65.633-65.536 65.633s-65.536-29.228-65.536-65.633zM274.944 381.082c-35.84 0-65.536 29.742-65.536 65.638 0 36.405 29.184 65.633 65.536 65.633s65.536-29.228 65.536-65.633c0-35.896-29.184-65.121-65.536-65.638z" />
<glyph unicode="&#xe980;" glyph-name="Clock1" d="M217.239 63.001l-50.088-77.070c-9.695-15.024-5.494-35.062 9.533-44.757 5.494-3.551 11.473-5.169 17.612-5.169 10.664 0 21.006 5.169 27.145 14.705l48.958 75.293c70.123-41.685 151.881-65.761 239.132-65.761 87.413 0 169.169 24.076 239.133 65.921l48.796-75.293c6.14-9.535 16.646-14.705 27.148-14.705 5.976 0 12.116 1.618 17.609 5.169 15.028 9.695 19.231 29.729 9.535 44.757l-49.926 77.070c107.287 85.799 176.275 217.805 176.275 365.65 0 258.36-210.207 468.57-468.57 468.57-258.36 0-468.57-210.207-468.57-468.57 0-147.841 68.993-279.847 176.279-365.81v0zM509.53 832.753c222.814 0 403.943-181.128 403.943-403.943s-181.129-403.939-403.943-403.939c-222.813 0-403.941 181.125-403.941 403.939s181.128 403.943 403.941 403.943v0zM617.447 291.303c6.14-5.333 13.734-7.918 21.328-7.918 9.048 0 17.936 3.715 24.4 10.99 11.792 13.41 10.338 33.767-3.072 45.56l-118.272 103.571v259.978c0 17.774-14.545 32.315-32.317 32.315s-32.313-14.541-32.313-32.315v-274.679c0-9.372 4.039-18.26 10.985-24.4l129.262-113.103zM105.596 791.869c8.403 0 16.805 3.233 23.106 9.695 38.456 39.263 82.082 72.063 129.423 97.592 15.672 8.403 21.651 27.952 13.249 43.788-8.403 15.672-27.952 21.651-43.788 13.249-53.318-28.599-102.114-65.277-145.254-109.389-12.442-12.766-12.28-33.283 0.485-45.725 6.46-6.142 14.701-9.209 22.779-9.209v0zM760.943 899.158c47.501-25.367 90.968-58.329 129.421-97.592 6.304-6.462 14.705-9.695 23.106-9.695 8.081 0 16.323 3.070 22.622 9.209 12.763 12.442 12.923 32.962 0.483 45.725-42.975 43.95-91.935 80.789-145.256 109.386-15.831 8.402-35.385 2.423-43.786-13.249-8.241-15.834-2.425-35.383 13.41-43.785v0z" />
<glyph unicode="&#xe987;" glyph-name="delete1" d="M96.533 660l53.138-641.473c3.808-46.257 43.212-82.528 89.648-82.528h489.612c46.435 0 85.839 36.27 89.648 82.528l53.132 641.473h-775.177zM334.095 55.999c-15.703 0-28.916 12.22-29.912 28.126l-30 484.001c-1.026 16.552 11.542 30.79 28.066 31.816 17.138 1.202 30.762-11.514 31.816-28.066l30-484.003c1.062-17.135-12.5-31.874-29.97-31.874zM514.123 86.002c0-16.582-13.418-30.003-30-30.003s-30 13.421-30 30.003v483.998c0 16.582 13.418 30 30 30s30-13.418 30-30v-483.998zM694.063 568.124l-30-483.999c-0.986-15.749-14.112-28.87-31.816-28.064-16.525 1.024-29.093 15.264-28.066 31.812l30 484.001c1.026 16.552 15.529 28.594 31.816 28.066 16.524-1.026 29.092-15.264 28.066-31.816zM874.134 840h-180.001v30c0 49.628-40.372 90-90 90h-240c-49.628 0-90-40.372-90-90v-30h-180c-33.138 0-60-26.862-60-60 0-33.134 26.862-60 60-60 275.932 0 504.078 0 780.001 0 33.137 0 60 26.866 60 60 0 33.138-26.863 60-60 60zM634.133 840h-300v30c0 16.552 13.448 30 30 30h240c16.552 0 30-13.448 30-30v-30z" />
<glyph unicode="&#xe988;" glyph-name="download1" d="M503.022 960c-34.727 0-62.877-28.151-62.877-62.877v-450.044l-203.881 203.879-88.923-88.92 355.686-355.691 355.692 355.691-88.921 88.92-203.9-203.898v450.063c0 34.726-28.151 62.877-62.878 62.877zM125.754 331.226h-125.754v-251.511c0-69.454 56.302-125.753 125.754-125.753h754.525c69.454 0 125.758 56.298 125.758 125.753v251.511h-125.758v-251.511h-754.525v251.511z" />
<glyph unicode="&#xe989;" glyph-name="edit1" d="M632.375 788l-563.419-563.457c-2.835-2.847-4.881-6.438-5.856-10.295l-62.45-250.655c-1.868-7.55 0.349-15.572 5.856-21.081 4.167-4.164 9.844-6.472 15.651-6.472 1.779 0 3.598 0.218 5.369 0.662l250.659 62.464c3.907 0.969 7.456 3.011 10.291 5.844l563.465 563.421-219.565 219.569zM991.519 864.843l-62.717 62.717c-41.916 41.917-114.975 41.877-156.843 0l-76.827-76.825 219.559-219.561 76.827 76.825c20.937 20.931 32.474 48.789 32.474 78.418s-11.537 57.487-32.474 78.425z" />
<glyph unicode="&#xe98a;" glyph-name="envelop1" d="M764.877 908.8c68.659 0 134.707-27.136 183.296-75.827 48.64-48.589 75.827-114.125 75.827-182.733v-404.48c0-142.848-116.224-258.56-259.123-258.56h-505.805c-142.899 0-259.072 115.712-259.072 258.56v404.48c0 142.848 115.661 258.56 259.072 258.56h505.805zM846.331 573.935l4.096 4.096c12.237 14.848 12.237 36.352-0.563 51.2-7.117 7.629-16.896 12.288-27.085 13.312-10.752 0.563-20.992-3.072-28.723-10.24l-230.861-184.32c-29.696-24.627-72.242-24.627-102.398 0l-230.4 184.32c-15.923 11.776-37.939 10.24-51.2-3.584-13.824-13.824-15.36-35.84-3.635-51.2l6.707-6.656 232.96-181.758c28.672-22.528 63.437-34.816 99.838-34.816 36.301 0 71.68 12.288 100.301 34.816l230.963 184.83z" />
<glyph unicode="&#xe98d;" glyph-name="Filter1" d="M733.269 358.542c118.062 0 214.033-94.731 214.033-211.268 0-116.474-95.972-211.274-214.033-211.274-118.057 0-214.030 94.8-214.030 211.274 0 116.537 95.973 211.268 214.030 211.268zM733.269 259.447c-62.709 0-113.64-50.273-113.64-112.174 0-61.838 50.931-112.179 113.64-112.179 62.714 0 113.641 50.341 113.641 112.179 0 61.901-50.927 112.174-113.641 112.174zM518.665 196.841c27.708 0 50.195-22.198 50.195-49.55s-22.488-49.545-50.195-49.545h-411.534c-27.708 0-50.195 22.192-50.195 49.545s22.487 49.55 50.195 49.55h411.534zM270.921 960c118.059 0 214.032-94.801 214.032-211.272s-95.973-211.272-214.032-211.272c-117.992 0-214.032 94.802-214.032 211.272s96.040 211.272 214.032 211.272zM270.921 860.904c-62.644 0-113.642-50.34-113.642-112.176s50.999-112.176 113.642-112.176c62.71 0 113.642 50.34 113.642 112.176s-50.931 112.176-113.642 112.176zM897.126 798.263c27.711 0 50.199-22.197 50.199-49.548s-22.488-49.547-50.199-49.547h-411.599c-27.708 0-50.195 22.197-50.195 49.547s22.488 49.548 50.195 49.548h411.599z" />
<glyph unicode="&#xe9b3;" glyph-name="Heart1" d="M709.12 934.392c32.307 0 64.563-4.557 95.232-14.848 188.979-61.44 257.075-268.8 200.192-450.048-32.256-92.623-84.992-177.154-154.061-246.223-98.867-95.744-207.36-180.736-324.147-253.952l-12.8-7.731-13.311 8.243c-117.197 72.704-226.304 157.696-326.093 253.952-68.608 69.069-121.395 153.088-154.163 245.711-57.856 181.248 10.24 388.608 201.267 451.123 14.848 5.12 30.157 8.704 45.517 10.701h6.144c14.387 2.099 28.672 3.072 43.008 3.072h5.632c32.256-0.973 63.488-6.605 93.747-16.896h3.021c2.048-0.973 3.584-2.048 4.608-3.021 11.315-3.635 22.016-7.731 32.256-13.363l19.456-8.704c4.701-2.507 9.978-6.339 14.539-9.65 2.889-2.098 5.491-3.987 7.477-5.198 0.836-0.493 1.684-0.989 2.541-1.488 4.39-2.563 8.963-5.232 12.818-8.188 56.883 43.469 125.952 67.021 197.12 66.509zM845.312 565.752c20.992 0.563 38.912 17.408 40.448 38.963v6.093c1.536 71.731-41.933 136.704-108.032 161.792-20.992 7.219-44.032-4.096-51.712-25.6-7.168-21.504 4.096-45.056 25.6-52.685 32.819-12.288 54.784-44.595 54.784-80.384v-1.587c-0.973-11.725 2.56-23.040 9.728-31.744s17.92-13.773 29.184-14.848z" />
<glyph unicode="&#xe9b4;" glyph-name="HeartPressure1" d="M462.861 296.73c-14.72-8.896-29.931-17.63-46.072-26.364-258.417 143.748-384.077 280.317-384.077 417.491 0 112.166 79.112 196.757 184 196.757 72.942 0.559 142.005-32.799 186.911-90.282 3.057-4.396 8.073-7.018 13.428-7.018s10.372 2.621 13.427 7.018c44.924 57.48 113.997 90.837 186.944 90.282 60.471 0.54 117.022-29.878 149.901-80.633 3.166-4.987 8.777-7.878 14.677-7.563s11.17 3.787 13.79 9.083c2.62 5.296 2.176 11.592-1.156 16.471-38.865 60.008-105.715 95.979-177.212 95.353-76.198 0.298-148.975-31.634-200.354-87.911-51.378 56.276-124.154 88.209-200.355 87.911-121.522 0-216.711-100.799-216.711-229.468 0-150.112 131.155-296.036 401.398-446.325 4.872-2.53 10.278-3.853 15.767-3.861 5.603-0.004 11.115 1.408 16.030 4.105 16.043 8.93 31.599 17.86 46.643 26.953 7.735 4.689 10.202 14.758 5.513 22.49-4.689 7.735-14.754 10.202-22.49 5.513v0zM65.417 687.85c0-9.033 7.323-16.356 16.356-16.356s16.355 7.323 16.355 16.356c0 63.672 41.559 131.335 118.577 131.335 9.033 0 16.356 7.323 16.356 16.356s-7.323 16.355-16.356 16.355c-98.264 0-151.289-84.509-151.289-164.046zM719.663 770.125c-128.538 0.064-238.080-93.265-258.423-220.183-20.348-126.919 54.528-249.812 176.644-289.931v-62.332c0.073-23.266 12.54-44.732 32.713-56.329v-90.871c0-27.098 21.969-49.067 49.067-49.067s49.067 21.969 49.067 49.067v90.871c20.173 11.597 32.636 33.062 32.708 56.329v62.332c122.121 40.119 196.996 163.012 176.649 289.931-20.348 126.918-129.886 220.247-258.423 220.183v0zM736.017 50.479c0-9.033-7.322-16.354-16.354-16.354s-16.358 7.322-16.358 16.354v81.779h32.713v-81.779zM768.73 197.679c0-18.065-14.647-32.708-32.713-32.708h-32.713c-18.065 0-32.708 14.643-32.708 32.708v53.845c32.401-6.37 65.732-6.37 98.133 0v-53.845zM736.017 280.294v31.876c0 9.033-7.322 16.354-16.354 16.354s-16.358-7.322-16.358-16.354v-31.876c-113.378 8.235-203.55 98.406-211.785 211.786h31.876c9.033 0 16.354 7.322 16.354 16.355s-7.322 16.355-16.354 16.355h-31.876c8.235 113.381 98.406 203.553 211.785 211.788v-31.877c0-9.033 7.326-16.355 16.358-16.355s16.354 7.322 16.354 16.355v31.877c113.382-8.236 203.554-98.407 211.789-211.788h-31.876c-9.033 0-16.358-7.322-16.358-16.355s7.326-16.355 16.358-16.355h31.876c-8.235-113.38-98.406-203.552-211.789-211.786zM838.912 650.846l-86.259-86.259c-9.971 6.012-21.38 9.216-33.024 9.274-36.13 0-65.421-29.291-65.421-65.422s29.291-65.422 65.421-65.422c36.134 0 65.425 29.291 65.425 65.422-0.060 11.642-3.264 23.052-9.276 33.022l86.259 86.259c6.199 6.417 6.11 16.619-0.196 22.927-6.31 6.309-16.512 6.397-22.929 0.199v0zM719.629 475.729c-14.805-0.013-27.772 9.924-31.612 24.222-3.844 14.299 2.398 29.395 15.219 36.806 12.817 7.411 29.013 5.288 39.488-5.176 9.361-9.349 12.169-23.416 7.113-35.642-5.056-12.228-16.977-20.202-30.208-20.211v0z" />
<glyph unicode="&#xe9b5;" glyph-name="Home1" d="M365.301-1.193v156.554c0 39.962 32.634 72.361 72.891 72.361h147.157c19.333 0 37.873-7.624 51.543-21.197 13.67-13.568 21.35-31.974 21.35-51.164v-156.554c-0.123-16.614 6.441-32.594 18.232-44.385s27.832-18.422 44.57-18.422h100.398c46.889-0.123 91.904 18.289 125.102 51.159s51.855 77.507 51.855 124.058v446c0 37.601-16.788 73.268-45.844 97.392l-341.535 270.787c-59.407 47.478-144.532 45.945-202.169-3.641l-333.741-267.146c-30.427-23.413-48.612-59.186-49.511-97.392v-445.544c0-97.024 79.226-175.672 176.956-175.672h98.105c34.762 0 63.012 27.843 63.264 62.351l1.375 0.456z" />
<glyph unicode="&#xe9b6;" glyph-name="ignore-messages" d="M251.243 192.857l-135.581-112.985c-16.235-13.528-40.883-1.983-40.883 19.149v684.474c0 41.3 33.479 74.779 74.779 74.779h697.937c41.3 0 74.779-33.479 74.779-74.779v-498.526c0-41.3-33.479-74.779-74.779-74.779h-548.379c-17.494 0-34.433-6.133-47.873-17.333zM299.116 135.411h548.379c82.599 0 149.558 66.959 149.558 149.558v498.526c0 82.599-66.959 149.558-149.558 149.558h-697.937c-82.599 0-149.558-66.959-149.558-149.558v-684.474c0-84.534 98.594-130.711 163.535-76.595l135.581 112.985z" />
<glyph unicode="&#xe9c0;" glyph-name="Login1" d="M506.168 960h258.013c129.004 0 234.22-102.4 234.22-227.328v-569.344c0-125.44-105.216-227.328-235.279-227.328h-257.482c-129.006 0-234.748 101.888-234.748 226.816v245.76h327.801l-84.593-81.92c-15.862-15.36-15.862-40.448 0-55.808 7.93-7.68 18.505-11.264 29.077-11.264 10.045 0 20.623 3.584 28.554 11.264l154.383 148.992c7.931 7.168 12.16 17.408 12.16 28.16 0 10.24-4.229 20.48-12.16 27.648l-154.383 148.992c-15.862 15.36-41.77 15.36-57.631 0s-15.862-40.448 0-55.808l84.593-81.408h-327.801v244.736c0 125.44 105.742 227.84 235.277 227.84zM25.6 448.005c0 21.504 18.188 39.424 40.013 39.424h205.262v-78.848h-205.262c-21.825 0-40.013 17.408-40.013 39.424z" />
<glyph unicode="&#xe9d0;" d="M512 960c-288.426 0-512-211.272-512-496.64 0-149.263 61.174-278.251 160.796-367.339 8.364-7.487 13.412-17.974 13.754-29.196l2.788-91.076c0.89-29.051 30.898-47.953 57.482-36.213l101.624 44.863c8.614 3.795 18.268 4.506 27.346 2.006 46.7-12.842 96.402-19.685 148.208-19.685 288.426 0 512.002 211.275 512.002 496.642s-223.575 496.638-512 496.638v0z" />
<glyph unicode="&#xe9d1;" d="M204.541 318.127l150.4 238.611c23.924 37.96 75.154 47.412 111.050 20.49l119.62-89.716c10.976-8.234 26.078-8.188 37.005 0.106l161.557 122.608c21.564 16.364 49.706-9.442 35.28-32.342l-150.402-238.614c-23.925-37.96-75.156-47.411-111.050-20.486l-119.624 89.716c-10.974 8.231-26.076 8.186-37.004-0.108l-161.554-122.611c-21.564-16.36-49.712 9.445-35.278 32.346z" />
<glyph unicode="&#xe9d2;" glyph-name="Mute-notification" d="M691.991 224.582h170.757c29.086 0 52.662 23.575 52.662 52.662 0 13.964-5.548 27.359-15.425 37.236l-37.236 37.236c-13.964 13.965-21.811 32.908-21.811 52.659v119.19c0 163.918-132.883 296.799-296.802 296.799-164.264 0-297.289-133.425-296.796-297.69l0.352-117.407c0.061-20.278-8.149-39.703-22.734-53.788l-38.315-37.008c-10.2-9.854-15.961-23.426-15.961-37.604 0-28.877 23.408-52.285 52.283-52.285h171.135c0-82.26 66.685-148.945 148.946-148.945s148.945 66.686 148.945 148.945zM823.254 312.218l31.781-31.781h-623.231l31.956 30.864c25.524 24.655 39.892 58.649 39.786 94.134l-0.352 117.407c-0.4 133.352 107.591 241.668 240.941 241.668 133.073 0 240.947-107.874 240.947-240.944v-119.19c0-34.565 13.731-67.716 38.172-92.157zM449.954 224.582c0-51.414 41.677-93.091 93.091-93.091s93.091 41.677 93.091 93.091h-186.182z" />
<glyph unicode="&#xe9e6;" glyph-name="play1" d="M916.050 419.226c34.135 19.707 34.135 68.976 0 88.683l-744.646 429.921c-34.134 19.707-76.8-4.927-76.8-44.341v-859.841c0-39.414 42.667-64.051 76.8-44.344l744.646 429.921z" />
<glyph unicode="&#xe9f0;" glyph-name="Search1" d="M0 516.1c0 245.159 196.625 443.9 439.175 443.9 116.478 0 228.181-46.768 310.541-130.015 82.365-83.248 128.635-196.155 128.635-313.885 0-245.159-196.628-443.902-439.176-443.902-242.55 0-439.175 198.743-439.175 443.902zM871.086 158.5l130.796-105.58h2.273c26.46-26.747 26.46-70.113 0-96.86-26.465-26.747-69.366-26.747-95.831 0l-108.544 124.401c-10.26 10.337-16.031 24.376-16.031 39.020s5.77 28.682 16.031 39.020c19.789 19.656 51.512 19.656 71.306 0z" />
<glyph unicode="&#xe9f1;" glyph-name="Send1" d="M960.246 424.829l-881.024-470.17c-24.748-13.216-52.922 10.813-46.069 39.248l105.084 401.286c3.427 13.216 13.707 22.829 26.652 24.829l503.716 35.245-503.716 35.242c-12.945 2.003-23.225 12.016-26.652 24.832l-105.084 401.685c-7.234 28.434 20.941 52.464 46.069 39.248l881.405-470.171c23.226-12.813 23.226-48.458-0.381-61.274z" />
<glyph unicode="&#xe9f2;" glyph-name="Setting1" d="M284.928 218.848c11.603 0 23.205-1.392 34.555-4.272 34.252-8.736 63.993-30.432 81.625-59.568 11.45-18.288 17.782-39.648 17.987-61.44 0-31.2 26.448-56.208 58.976-56.208h63.485c32.374 0 58.822 24.864 58.976 55.536-0.205 33.888 13.779 66.096 39.366 90.336 25.232 23.904 60.496 38.256 95.76 37.296 23.104-0.528 45.347-6.432 64.957-16.992 28.221-15.312 64.243-6.192 80.56 20.208l33.642 53.136c7.498 12.24 9.677 27.6 5.674 41.76-3.952 14.16-13.882 26.448-27.258 33.696-31.312 17.088-53.658 44.64-62.928 77.664-9.171 32.4-4.154 67.776 13.731 96.912 11.651 19.2 28.726 35.376 49.197 46.512 27.462 15.216 37.088 49.248 21.126 75.745-0.656 1.056-1.264 2.16-1.773 3.312l-29.69 48.768c-16.163 26.64-52.138 35.808-80.358 20.592-30.499-17.088-66.778-21.984-101.635-13.296-34.81 8.544-63.994 29.424-82.182 58.896-11.654 18.432-17.987 39.888-18.189 61.728 0.454 16.416-5.626 31.152-16.669 41.952-10.995 10.752-26.448 16.848-42.307 16.848h-63.485c-15.709 0-30.4-5.808-41.498-16.272-11.046-10.512-17.075-24.48-16.973-39.36-1.066-70.176-61.61-126.672-134.925-126.672-23.509 0.24-46.157 6.24-65.816 17.376-27.613 14.88-63.688 5.712-79.851-20.928l-34.301-53.424c-15.707-25.825-6.080-59.953 21.888-75.361 41.496-22.752 67.387-65.184 67.387-110.688s-25.891-87.888-67.488-110.688c-27.816-15.264-37.443-49.2-21.331-75.6l31.971-52.224c7.904-13.488 20.824-23.232 35.771-27.216 14.896-3.936 31.312-2.256 44.992 4.944 20.115 11.184 43.523 16.992 67.032 16.992zM541.555-34.64h-63.485c-74.432 0-134.976 57.312-134.976 127.824-0.102 8.688-2.736 17.712-7.652 25.536-7.955 13.152-20.824 22.56-35.669 26.304-14.744 3.744-30.907 1.68-44.181-5.616-31.819-16.8-69.261-20.88-103.512-11.76-34.2 9.168-63.739 31.44-81.067 60.96l-31.667 51.696c-37.037 60.864-14.997 138.864 49.147 174 18.189 9.936 29.488 28.464 29.488 48.336s-11.299 38.448-29.488 48.384c-64.195 35.328-86.184 113.52-49.197 174.385l34.352 53.424c36.531 60.192 119.117 81.408 183.515 46.368 8.765-4.944 18.291-7.44 27.968-7.536 31.565 0 57.964 24.672 58.469 55.008-0.202 33.456 13.731 65.568 39.114 89.808 25.485 24.192 59.331 37.488 95.357 37.488h63.485c36.275 0 71.539-14.112 96.822-38.64 25.232-24.672 39.165-58.512 38.102-92.832 0.102-7.728 2.787-16.656 7.651-24.48 8.054-12.96 20.771-22.080 35.872-25.824 15.098-3.552 30.906-1.632 44.333 5.904 64.854 35.088 147.389 14.064 184.426-46.896l31.568-51.792c0.81-1.392 1.52-2.736 2.128-4.128 33.539-60.049 11.146-135.649-51.174-170.161-9.069-4.944-16.416-11.856-21.485-20.208-7.853-12.912-10.032-28.272-6.080-42.384 4.054-14.4 13.731-26.352 27.363-33.744 30.752-16.752 53.706-44.976 62.877-77.568 9.168-32.544 4.154-67.872-13.731-97.008l-33.645-53.088c-37.037-60.288-119.571-81.168-183.766-46.032-8.563 4.656-18.442 7.2-28.272 7.44h-0.304c-14.643 0-29.69-5.904-40.634-16.224-11.098-10.512-17.178-24.528-17.075-39.408-0.355-70.512-60.902-127.536-134.976-127.536zM510.026 553.219c-52.694 0-95.558-40.656-95.558-90.576s42.864-90.48 95.558-90.48c52.694 0 95.558 40.56 95.558 90.48s-42.864 90.576-95.558 90.576zM510.026 300.163c-94.595 0-171.558 72.864-171.558 162.48s76.963 162.576 171.558 162.576c94.595 0 171.558-72.96 171.558-162.576s-76.963-162.48-171.558-162.48z" />
<glyph unicode="&#xea08;" glyph-name="Star1" d="M776.236 359.253c-12.629-12.239-18.432-29.94-15.555-47.299l43.349-239.909c3.657-20.334-4.925-40.911-21.943-52.663-16.677-12.19-38.863-13.653-57.051-3.901l-215.966 112.64c-7.509 3.998-15.848 6.144-24.382 6.388h-13.214c-4.584-0.683-9.070-2.146-13.166-4.389l-216.015-113.176c-10.679-5.364-22.772-7.266-34.621-5.364-28.867 5.461-48.128 32.963-43.398 61.976l43.398 239.909c2.877 17.506-2.926 35.304-15.555 47.738l-176.079 170.667c-14.726 14.287-19.846 35.742-13.117 55.101 6.534 19.31 23.211 33.402 43.349 36.571l242.347 35.157c18.432 1.902 34.621 13.117 42.91 29.696l106.789 218.941c2.536 4.876 5.803 9.362 9.752 13.166l4.389 3.413c2.292 2.536 4.925 4.632 7.851 6.339l5.315 1.95 8.29 3.413h20.53c18.334-1.902 34.475-12.873 42.91-29.257l108.203-217.966c7.802-15.945 22.967-27.014 40.472-29.696l242.347-35.157c20.48-2.926 37.595-17.067 44.373-36.571 6.388-19.554 0.878-41.009-14.141-55.101l-182.37-172.617z" />
<glyph unicode="&#xea09;" glyph-name="target-black" d="M535.747 29.847c-186.99-44.863-376.688 71.423-421.552 258.412s71.422 376.687 258.411 421.551c186.99 44.864 376.687-71.421 421.551-258.411s-71.421-376.688-258.411-421.552zM380.763 675.812c-169.991-40.785-273.355-209.405-232.569-379.396s209.405-273.355 379.396-232.57c169.99 40.785 273.354 209.407 232.569 379.396-40.785 169.991-209.405 273.355-379.396 232.57zM507.196 148.84c-122.394-29.365-244.644 45.574-274.008 167.967-29.366 122.394 45.574 244.644 167.967 274.008 122.392 29.366 244.642-45.574 274.008-167.966 29.365-122.394-45.574-244.644-167.967-274.010zM409.311 556.817c-101.995-24.471-166.596-129.859-142.126-231.852 24.471-101.995 129.859-166.598 231.854-142.127 101.993 24.472 166.596 129.859 142.126 231.854s-129.859 166.598-231.854 142.126zM478.645 267.837c-57.796-13.868-112.599 19.726-126.465 77.522-13.867 57.798 19.726 112.599 77.524 126.465 57.796 13.867 112.599-19.726 126.465-77.522 13.867-57.798-19.726-112.599-77.524-126.465zM437.86 437.827c-37.397-8.973-60.655-46.912-51.682-84.309 8.973-37.399 46.912-60.655 84.311-51.682 37.397 8.973 60.655 46.912 51.682 84.309-8.973 37.399-46.912 60.655-84.311 51.682zM458.264 352.831c-3.399-0.815-10.199-2.446-14.414 0.137-8.431 5.168-10.879 15.369-5.71 23.799l193.808 316.163c5.168 8.431 15.369 10.879 23.799 5.71s10.877-15.367 5.71-23.798l-193.809-316.164c0.816-3.399-5.983-5.030-9.384-5.847v0zM737.065 689.387l-84.995-20.392c-10.199-2.448-18.63 2.721-21.077 12.921l-20.393 84.995c-0.815 3.399 0.953 11.015 0.138 14.414l90.443 147.543c5.983 5.031 12.783 6.663 19.583 8.294 7.616-1.769 12.648-7.752 14.279-14.552l16.313-67.996 67.996 16.314c6.8 1.631 14.416-0.137 19.446-6.121 1.631-6.8 3.264-13.599 1.495-21.215l-90.443-147.543c-3.401-0.816-9.384-5.847-12.784-6.663v0zM660.912 707.071l61.197 14.683 64.603 105.388-44.198-10.604c-10.199-2.448-18.63 2.721-21.077 12.92l-10.604 44.198-64.603-105.388 14.683-61.197z" />
<glyph unicode="&#xea10;" glyph-name="Thermometer1" d="M574.426 394.080h-61.356c-3.817 0-7.477 1.516-10.176 4.215s-4.215 6.357-4.215 10.174c0 3.817 1.516 7.475 4.215 10.174s6.359 4.215 10.176 4.215h61.356c3.817 0 7.477-1.516 10.176-4.215s4.215-6.357 4.215-10.174c0-3.817-1.516-7.475-4.215-10.174s-6.359-4.215-10.176-4.215zM574.426 516.919h-61.356c-3.817 0-7.477 1.516-10.176 4.215s-4.215 6.357-4.215 10.174c0 3.817 1.516 7.479 4.215 10.179 2.698 2.695 6.359 4.215 10.176 4.215h61.356c3.817 0 7.477-1.52 10.176-4.215 2.699-2.699 4.215-6.361 4.215-10.179s-1.516-7.475-4.215-10.174c-2.699-2.699-6.359-4.215-10.176-4.215zM574.426 639.739h-61.356c-3.817 0-7.477 1.516-10.176 4.215s-4.215 6.359-4.215 10.176c0 3.817 1.516 7.477 4.215 10.176s6.359 4.215 10.176 4.215h61.356c3.817 0 7.477-1.516 10.176-4.215s4.215-6.359 4.215-10.176c0-3.817-1.516-7.477-4.215-10.176s-6.359-4.215-10.176-4.215zM574.426 762.559h-61.356c-3.817 0-7.477 1.516-10.176 4.215s-4.215 6.359-4.215 10.175c0 3.817 1.516 7.477 4.215 10.176s6.359 4.215 10.176 4.215h61.356c3.817 0 7.477-1.516 10.176-4.215s4.215-6.359 4.215-10.176c0-3.816-1.516-7.477-4.215-10.175s-6.359-4.215-10.176-4.215zM733.721 793.667c-7.811-2.906-16.118-4.261-24.449-3.991-6.738-0.807-13.57-0.14-20.021 1.957-6.455 2.096-12.374 5.571-17.35 10.183s-8.889 10.252-11.468 16.527c-2.579 6.275-3.763 13.037-3.468 19.815-0.256 7.058 0.986 14.090 3.645 20.633s6.674 12.449 11.781 17.327c5.105 4.878 11.188 8.619 17.848 10.976 6.656 2.357 13.738 3.276 20.779 2.697 8.311 0.352 16.601-1.125 24.281-4.329l-5.087-20.435c-5.698 2.338-11.801 3.522-17.957 3.486-3.797 0.254-7.606-0.322-11.158-1.686-3.555-1.364-6.771-3.484-9.421-6.214-2.654-2.73-4.682-6.004-5.939-9.595-1.262-3.591-1.729-7.413-1.364-11.202-0.356-3.822 0.131-7.675 1.43-11.287s3.371-6.896 6.074-9.619c2.703-2.723 5.976-4.82 9.576-6.142 3.604-1.322 7.455-1.837 11.276-1.509 5.902-0.025 11.768 0.906 17.371 2.755l3.621-20.349zM645.243 890.553c-5.681 0-11.234 1.685-15.958 4.841s-8.405 7.642-10.579 12.891c-2.174 5.248-2.743 11.024-1.635 16.596s3.844 10.69 7.861 14.707c4.017 4.017 9.135 6.753 14.707 7.861s11.347 0.539 16.595-1.635c5.249-2.174 9.735-5.856 12.891-10.579s4.841-10.277 4.841-15.958c-0.003-7.617-3.030-14.921-8.416-20.307s-12.69-8.413-20.308-8.416v0zM645.243 933.61c-2.834 0-5.606-0.841-7.963-2.416s-4.194-3.813-5.279-6.432c-1.085-2.619-1.369-5.501-0.816-8.281s1.918-5.334 3.923-7.339c2.005-2.005 4.558-3.369 7.339-3.923s5.662-0.269 8.281 0.816c2.619 1.085 4.858 2.922 6.433 5.279s2.415 5.128 2.415 7.963c0.003 1.883-0.366 3.749-1.085 5.489s-1.775 3.322-3.106 4.654c-1.331 1.332-2.913 2.388-4.653 3.108s-3.606 1.089-5.489 1.087v-0.005zM464.484 217.973c-3.066 1.2-5.625 3.42-7.248 6.287s-2.209 6.201-1.662 9.449l0.085 0.508-0.098 321.482h-36.384v-322.379c0.263-1.978 0.1-3.994-0.478-5.902-0.589-2.097-1.647-4.030-3.092-5.657s-3.242-2.9-5.254-3.731c-16.078-6.287-29.456-17.994-37.824-33.096-8.368-15.098-11.201-32.649-8.011-49.615s12.205-32.285 25.487-43.315c13.282-11.031 29.998-17.076 47.262-17.093 17.264-0.020 33.993 5.992 47.299 16.99 13.305 11.002 22.352 26.305 25.579 43.262 3.227 16.962 0.431 34.517-7.905 49.635s-21.689 26.849-37.754 33.174h-0.001zM513.006 300.9v583.6c-0.055 20.043-8.056 39.246-22.248 53.399s-33.417 22.101-53.46 22.101c-20.043 0-39.268-7.948-53.46-22.101s-22.193-33.356-22.248-53.399v-583.604c-34.623-17.093-62.447-45.392-78.946-80.302-16.499-34.906-20.702-74.371-11.927-111.972s30.014-71.127 60.261-95.13c30.247-23.998 67.724-37.061 106.335-37.057 38.612 0 76.087 13.066 106.332 37.069s51.48 57.528 60.252 95.13c8.772 37.605 4.565 77.066-11.937 111.976-16.502 34.906-44.328 63.205-78.953 80.29v0zM437.294 46.24c-23.085-0.020-45.505 7.733-63.649 22.004-18.144 14.275-30.956 34.238-36.373 56.68-5.417 22.438-3.123 46.051 6.511 67.027 9.635 20.98 26.049 38.105 46.601 48.62v643.916c-0.022 6.176 1.176 12.295 3.524 18.007s5.802 10.904 10.161 15.279c4.359 4.375 9.54 7.846 15.243 10.214s11.819 3.588 17.995 3.588c6.176 0 12.291-1.219 17.995-3.588s10.884-5.84 15.244-10.214c4.359-4.375 7.812-9.567 10.161-15.279s3.546-11.831 3.525-18.007v-643.92c20.554-10.514 36.97-27.644 46.604-48.624 9.634-20.984 11.925-44.597 6.504-67.039s-18.237-42.406-36.386-56.676c-18.149-14.27-40.573-22.016-63.66-21.991v0.004zM455.537 584.487l-0.091 300.008c0.014 2.391-0.446 4.762-1.352 6.974s-2.24 4.225-3.926 5.921c-1.686 1.696-3.69 3.041-5.898 3.959s-4.576 1.391-6.967 1.391c-2.391 0-4.759-0.473-6.966-1.391s-4.212-2.263-5.899-3.959c-1.686-1.695-3.020-3.708-3.926-5.921s-1.365-4.583-1.351-6.974v-300.008h36.377z" />
<glyph unicode="&#xea11;" glyph-name="time1" d="M290.048 883.2c-129.536 0-213.248-88.73-213.248-226.099v-418.202c0-137.37 83.712-226.099 213.248-226.099h443.802c129.587 0 213.35 88.73 213.35 226.099v418.202c0 137.37-83.712 226.099-213.299 226.099h-443.853zM733.85-64h-443.802c-173.517 0-290.048 121.754-290.048 302.899v418.202c0 181.146 116.531 302.899 290.048 302.899h443.853c173.517 0 290.099-121.754 290.099-302.899v-418.202c0-181.146-116.582-302.899-290.15-302.899v0zM685.568 306.289c-6.707 0-13.466 1.741-19.661 5.376l-173.618 103.578c-11.571 6.963-18.739 19.507-18.739 32.973v223.334c0 21.197 17.203 38.4 38.4 38.4s38.399-17.203 38.399-38.4v-201.523l154.931-92.314c18.176-10.906 24.166-34.458 13.312-52.685-7.219-12.032-19.968-18.739-33.024-18.739z" />
<glyph unicode="&#xea14;" glyph-name="Unfil-challenge" d="M691.999 477.798l-97.997-156.794-172.002 275.201v67.346l232.863 194.050h-292.863v-261.396l-286.628-458.604h-75.372v-60.001h1024v60.001h-119.373l-212.628 340.198zM833.874 137.6h-283.745l141.87 226.99 141.875-226.99zM422 797.6h67.138l-67.138-55.95v55.95zM392 530.996l166.623-266.594-79.249-126.802h-333.246l245.872 393.396z" />
<glyph unicode="&#xea17;" glyph-name="Union1" d="M700.003 159.996h229.291c39.052 0 70.712 31.659 70.712 70.712 0 18.754-7.449 36.738-20.711 50l-50 50c-18.754 18.754-29.289 44.187-29.289 70.709v160.048c0 220.104-178.431 398.535-398.538 398.535-220.571 0-399.195-179.161-398.533-399.732l0.473-157.652c0.082-27.23-10.943-53.312-30.527-72.23l-51.448-49.69c-13.697-13.23-21.432-31.454-21.432-50.498 0-38.772 31.432-70.203 70.204-70.203h229.798c0-110.457 89.541-200.002 199.999-200.002 110.46 0 200.002 89.544 200.002 200.002zM876.26 277.674l42.68-42.677h-836.867l42.911 41.446c34.273 33.102 53.566 78.749 53.423 126.4l-0.473 157.652c-0.537 179.061 144.471 324.506 323.533 324.506 178.685 0 323.537-144.852 323.537-323.535v-160.048c0-46.411 18.438-90.925 51.256-123.743zM625.003 159.996h-249.999c0-69.035 55.963-125.001 124.998-125.001 69.038 0 125.001 55.966 125.001 125.001z" />
<glyph unicode="&#xea18;" glyph-name="user1" d="M712.013 343.282c-123.26 37.596-248.986 38.771-375.534 17.231-85.872-14.49-164.348-45.819-227.212-104.955-78.887-74.413-107.237-167.616-109.292-270.221-0.822-37.6 11.504-49.35 50.948-49.35 146.681 0 292.95 0 439.631 0 97.377 0 194.341 0 291.717 0 51.36 0 102.72-0.39 154.080 0 27.117 0 42.726 13.318 42.726 37.21 1.645 161.35-69.434 310.163-267.066 370.085zM78.041 10.79c9.039 103.782 51.77 186.413 149.557 237.715 62.452 32.902 130.657 45.824 200.915 49.741 100.253 5.875 200.094 1.958 294.181-36.422 114.637-46.995 167.635-133.939 178.323-251.034-275.286 0-548.104 0-822.977 0zM490.979 424.733c27.117 5.874 55.878 8.224 81.352 18.015 102.306 39.162 156.949 115.138 169.276 217.352 11.507 97.907-21.363 182.106-109.7 237.326-87.926 55.611-182.426 56.786-274.051 6.658-104.772-57.178-148.735-182.498-108.88-298.811 36.978-107.697 132.711-178.19 242.003-180.54zM489.335 864.92c102.307 0 177.494-74.017 177.494-174.273 0-45.821-13.555-87.333-43.139-123.754-73.135-90.466-204.614-87.724-273.64 6.266-25.885 35.246-38.211 74.409-37.8 117.488 0 101.431 73.546 174.273 177.085 174.273z" />
</font>
</defs>
</svg>
