<svg width="49" height="53" viewBox="0 0 49 53" fill="none" xmlns="http://www.w3.org/2000/svg">
<path d="M20.1934 6.54419L18.7578 10.9722L20.1934 16.4213L31.3361 6.54419H20.1934Z" fill="#FF7D43"/>
<path d="M20.1934 6.54419V19.8792L18.7578 20.7954L17.3223 19.8792V6.54419H20.1934Z" fill="#575F64"/>
<path d="M20.1934 6.54419V19.8792L18.7578 20.7954V6.54419H20.1934Z" fill="#474F54"/>
<path d="M29.6407 35.927L24.8824 43.5972L18.7574 43.6847L3.18457 43.9076L17.3218 19.8792H20.1929L29.6407 35.927Z" fill="#8EB26F"/>
<path d="M29.6412 35.927L24.8828 43.5972L18.7578 43.6847V19.8792H20.1934L29.6412 35.927Z" fill="#6E8D53"/>
<path d="M33.1132 25.8752L22.4092 44.0914L24.8439 45.7099H41.3825L43.8172 44.0914L33.1132 25.8752Z" fill="#8EB26F"/>
<path d="M0 43.1899H49V46.2438H0V43.1899Z" fill="#6E8D53"/>
<path d="M18.7578 43.1899H49V46.2438H18.7578V43.1899Z" fill="#6E8D53"/>
</svg>
