<svg width="49" height="49" viewBox="0 0 49 49" fill="none" xmlns="http://www.w3.org/2000/svg">
<g clip-path="url(#clip0_1_4964)">
<path d="M49.0002 9.26111L45.5305 7.8494C40.8032 5.92318 36.0312 5.31757 32.1437 6.05917C27.6395 7.00261 24.8433 8.41156 22.7516 9.5443C20.6586 10.6756 19.0927 11.4986 16.4739 11.4803C15.0103 11.4676 13.3238 10.684 11.9682 10.0546C11.4355 9.80643 10.956 9.58631 10.555 9.43491L9.54297 12.1209L9.63551 27.6302C12.1688 28.3928 15.1997 28.8555 18.3105 28.8555C23.0952 28.8555 28.2606 27.7592 31.9027 24.968C35.0149 22.3339 36.048 22.7572 38.5477 23.7764L40.9155 24.7423L40.5062 22.2175C40.0057 19.1347 39.1253 16.6646 37.7641 14.5547C39.5446 12.9818 42.4128 11.6303 45.4759 10.5299L49.0002 9.26111Z" fill="#8EB26F"/>
<path d="M10.0488 7.17773H8.61328V41.8223H10.0488H11.4844V7.17773H10.0488Z" fill="#F0F7FF"/>
<path d="M10.0488 7.17773H11.4844V41.8223H10.0488V7.17773Z" fill="#DFE7F4"/>
<path d="M10.0488 8.61328C12.4273 8.61328 14.3555 6.68513 14.3555 4.30664C14.3555 1.92815 12.4273 0 10.0488 0C7.67034 0 5.74219 1.92815 5.74219 4.30664C5.74219 6.68513 7.67034 8.61328 10.0488 8.61328Z" fill="#FED843"/>
<path d="M14.3555 4.30664C14.3555 1.93186 12.4236 0 10.0488 0V8.61328C12.4236 8.61328 14.3555 6.68142 14.3555 4.30664Z" fill="#FABE2C"/>
<path d="M16.7863 43.2578H14.3555V40.3867H10.0488H5.74219V43.2578H3.31133L0 49H10.0488H20.0977L16.7863 43.2578Z" fill="#474F54"/>
<path d="M16.7863 43.2578H14.3555V40.3867H10.0488V49H20.0977L16.7863 43.2578Z" fill="#5C7183"/>
</g>
<defs>
<clipPath id="clip0_1_4964">
<rect width="49" height="49" fill="white"/>
</clipPath>
</defs>
</svg>
