<svg width="22" height="16" viewBox="0 0 22 16" fill="none" xmlns="http://www.w3.org/2000/svg">
<path d="M14.867 12.8H18.5356C19.1605 12.8 19.667 12.2935 19.667 11.6686C19.667 11.3686 19.5478 11.0808 19.3356 10.8686L18.5356 10.0686C18.2356 9.76857 18.067 9.3616 18.067 8.93726L18.067 6.37654C18.067 2.85487 15.2121 0 11.6904 0C8.1613 0 5.30334 2.86655 5.31393 6.39568L5.3215 8.91809C5.32281 9.35374 5.14642 9.77108 4.83307 10.0737L4.0099 10.8688C3.79076 11.0805 3.66699 11.3721 3.66699 11.6767C3.66699 12.2971 4.16989 12.8 4.79026 12.8H8.46699C8.46699 14.5673 9.89968 16 11.667 16C13.4343 16 14.867 14.5673 14.867 12.8ZM17.6871 10.9172L18.3699 11.6H4.98017L5.66673 10.9369C6.2151 10.4072 6.52379 9.67687 6.5215 8.91449L6.51393 6.39208C6.50533 3.5271 8.82545 1.2 11.6904 1.2C14.5494 1.2 16.867 3.51761 16.867 6.37654L16.867 8.93726C16.867 9.67986 17.162 10.3921 17.6871 10.9172ZM9.66699 12.8C9.66699 13.9046 10.5624 14.8 11.667 14.8C12.7716 14.8 13.667 13.9046 13.667 12.8H9.66699Z" fill="black"/>
<path d="M14.867 12.8H18.5356C19.1605 12.8 19.667 12.2935 19.667 11.6686C19.667 11.3686 19.5478 11.0808 19.3356 10.8686L18.5356 10.0686C18.2356 9.76857 18.067 9.3616 18.067 8.93726L18.067 6.37654C18.067 2.85487 15.2121 0 11.6904 0C8.1613 0 5.30334 2.86655 5.31393 6.39568L5.3215 8.91809C5.32281 9.35374 5.14642 9.77108 4.83307 10.0737L4.0099 10.8688C3.79076 11.0805 3.66699 11.3721 3.66699 11.6767C3.66699 12.2971 4.16989 12.8 4.79026 12.8H8.46699C8.46699 14.5673 9.89968 16 11.667 16C13.4343 16 14.867 14.5673 14.867 12.8ZM17.6871 10.9172L18.3699 11.6H4.98017L5.66673 10.9369C6.2151 10.4072 6.52379 9.67687 6.5215 8.91449L6.51393 6.39208C6.50533 3.5271 8.82545 1.2 11.6904 1.2C14.5494 1.2 16.867 3.51761 16.867 6.37654L16.867 8.93726C16.867 9.67986 17.162 10.3921 17.6871 10.9172ZM9.66699 12.8C9.66699 13.9046 10.5624 14.8 11.667 14.8C12.7716 14.8 13.667 13.9046 13.667 12.8H9.66699Z" stroke="black"/>
<line x1="1.31801" y1="11.4326" x2="20.4326" y2="1.45978" stroke="black" stroke-width="1.5" stroke-linecap="round"/>
</svg>
