<svg width="21" height="19" viewBox="0 0 21 19" fill="none" xmlns="http://www.w3.org/2000/svg">
<path fill-rule="evenodd" clip-rule="evenodd" d="M17.3871 7.84082H2.71971C2.37903 7.84082 2.10254 7.57482 2.10254 7.24707C2.10254 6.91932 2.37903 6.65332 2.71971 6.65332H17.3871C17.7278 6.65332 18.0043 6.91932 18.0043 7.24707C18.0043 7.57482 17.7278 7.84082 17.3871 7.84082" fill="#8EB26F"/>
<path fill-rule="evenodd" clip-rule="evenodd" d="M13.7123 10.9326C13.3716 10.9326 13.0918 10.6666 13.0918 10.3389C13.0918 10.0111 13.3642 9.74512 13.7049 9.74512H13.7123C14.0529 9.74512 14.3294 10.0111 14.3294 10.3389C14.3294 10.6666 14.0529 10.9326 13.7123 10.9326" fill="#8EB26F"/>
<path fill-rule="evenodd" clip-rule="evenodd" d="M10.0609 10.9326C9.72022 10.9326 9.44043 10.6666 9.44043 10.3389C9.44043 10.0111 9.71281 9.74512 10.0535 9.74512H10.0609C10.4016 9.74512 10.6781 10.0111 10.6781 10.3389C10.6781 10.6666 10.4016 10.9326 10.0609 10.9326" fill="#8EB26F"/>
<path fill-rule="evenodd" clip-rule="evenodd" d="M6.40156 10.9326C6.06088 10.9326 5.78027 10.6666 5.78027 10.3389C5.78027 10.0111 6.05348 9.74512 6.39416 9.74512H6.40156C6.74224 9.74512 7.01874 10.0111 7.01874 10.3389C7.01874 10.6666 6.74224 10.9326 6.40156 10.9326" fill="#8EB26F"/>
<path fill-rule="evenodd" clip-rule="evenodd" d="M13.7123 14.0093C13.3716 14.0093 13.0918 13.7433 13.0918 13.4155C13.0918 13.0878 13.3642 12.8218 13.7049 12.8218H13.7123C14.0529 12.8218 14.3294 13.0878 14.3294 13.4155C14.3294 13.7433 14.0529 14.0093 13.7123 14.0093" fill="#8EB26F"/>
<path fill-rule="evenodd" clip-rule="evenodd" d="M10.0609 14.0093C9.72022 14.0093 9.44043 13.7433 9.44043 13.4155C9.44043 13.0878 9.71281 12.8218 10.0535 12.8218H10.0609C10.4016 12.8218 10.6781 13.0878 10.6781 13.4155C10.6781 13.7433 10.4016 14.0093 10.0609 14.0093" fill="#8EB26F"/>
<path fill-rule="evenodd" clip-rule="evenodd" d="M6.40156 14.0093C6.06088 14.0093 5.78027 13.7433 5.78027 13.4155C5.78027 13.0878 6.05348 12.8218 6.39416 12.8218H6.40156C6.74224 12.8218 7.01874 13.0878 7.01874 13.4155C7.01874 13.7433 6.74224 14.0093 6.40156 14.0093" fill="#8EB26F"/>
<path fill-rule="evenodd" clip-rule="evenodd" d="M13.3769 4.58438C13.0363 4.58438 12.7598 4.31838 12.7598 3.99063V1.38525C12.7598 1.0575 13.0363 0.791504 13.3769 0.791504C13.7176 0.791504 13.9941 1.0575 13.9941 1.38525V3.99063C13.9941 4.31838 13.7176 4.58438 13.3769 4.58438" fill="#8EB26F"/>
<path fill-rule="evenodd" clip-rule="evenodd" d="M6.72948 4.58438C6.3888 4.58438 6.1123 4.31838 6.1123 3.99063V1.38525C6.1123 1.0575 6.3888 0.791504 6.72948 0.791504C7.07016 0.791504 7.34666 1.0575 7.34666 1.38525V3.99063C7.34666 4.31838 7.07016 4.58438 6.72948 4.58438" fill="#8EB26F"/>
<mask id="mask0_599_5967" style="mask-type:luminance" maskUnits="userSpaceOnUse" x="2" y="2" width="17" height="16">
<path fill-rule="evenodd" clip-rule="evenodd" d="M2.02637 2.0415H18.0729V17.8122H2.02637V2.0415Z" fill="white"/>
</mask>
<g mask="url(#mask0_599_5967)">
<path fill-rule="evenodd" clip-rule="evenodd" d="M6.5696 3.229C4.43582 3.229 3.26072 4.32388 3.26072 6.31175V13.4755C3.26072 15.507 4.43582 16.6248 6.5696 16.6248H13.5297C15.6635 16.6248 16.8386 15.5275 16.8386 13.5357V6.31175C16.8419 5.33405 16.5687 4.57405 16.0264 4.05155C15.4685 3.51321 14.6085 3.229 13.5371 3.229H6.5696ZM13.5297 17.8123H6.5696C3.76763 17.8123 2.02637 16.1506 2.02637 13.4755V6.31175C2.02637 3.67709 3.76763 2.0415 6.5696 2.0415H13.5371C14.9434 2.0415 16.1062 2.44684 16.9003 3.21238C17.6714 3.95734 18.077 5.02846 18.0729 6.31334V13.5357C18.0729 16.1735 16.3317 17.8123 13.5297 17.8123V17.8123Z" fill="#8EB26F"/>
</g>
</svg>
