<svg width="19" height="18" viewBox="0 0 19 18" fill="none" xmlns="http://www.w3.org/2000/svg">
<path fill-rule="evenodd" clip-rule="evenodd" d="M4.66174 13.7341C4.9111 13.5263 5.22541 13.4125 5.55 13.4125H15.725C16.4913 13.4125 17.1125 12.7913 17.1125 12.025V2.775C17.1125 2.0087 16.4913 1.3875 15.725 1.3875H2.775C2.0087 1.3875 1.3875 2.0087 1.3875 2.775V15.4752C1.3875 15.8673 1.84485 16.0815 2.14608 15.8305L4.66174 13.7341ZM5.55 14.8H15.725C17.2576 14.8 18.5 13.5576 18.5 12.025V2.775C18.5 1.24241 17.2576 0 15.725 0H2.775C1.24241 0 0 1.24241 0 2.775V15.4752C0 17.0437 1.82938 17.9005 3.03434 16.8964L5.55 14.8Z" fill="black"/>
<path d="M11.5625 5.08752L6.9375 9.71252" stroke="black" stroke-width="1.5" stroke-linecap="round" stroke-linejoin="round"/>
<path d="M11.5625 9.71252L6.9375 5.08752" stroke="black" stroke-width="1.5" stroke-linecap="round" stroke-linejoin="round"/>
</svg>
