<svg width="17" height="19" viewBox="0 0 17 19" fill="none" xmlns="http://www.w3.org/2000/svg">
<g clip-path="url(#clip0_1_8039)">
<path d="M11.1252 12.6362C9.19927 12.0488 7.23479 12.0304 5.25748 12.367C3.91573 12.5934 2.68954 13.0829 1.7073 14.0069C0.474688 15.1696 0.0317181 16.6259 -0.000381202 18.2291C-0.0132209 18.8166 0.179375 19.0002 0.79568 19.0002C3.08757 19.0002 5.37303 19.0002 7.66492 19.0002C9.18643 19.0002 10.7015 19.0002 12.223 19.0002C13.0255 19.0002 13.828 19.0063 14.6305 19.0002C15.0542 19.0002 15.2981 18.7921 15.2981 18.4188C15.3238 15.8977 14.2132 13.5725 11.1252 12.6362ZM1.21939 17.8314C1.36063 16.2098 2.02829 14.9187 3.55622 14.1171C4.53203 13.603 5.59773 13.4011 6.69552 13.3399C8.26197 13.2481 9.82199 13.3093 11.2921 13.909C13.0833 14.6433 13.9114 16.0018 14.0784 17.8314C9.77705 17.8314 5.51427 17.8314 1.21939 17.8314Z" fill="black"/>
<path d="M7.67154 11.3636C8.09524 11.2718 8.54463 11.2351 8.94267 11.0821C10.5412 10.4702 11.395 9.28304 11.5876 7.68594C11.7674 6.15615 11.2538 4.84053 9.87354 3.97773C8.4997 3.10881 7.02313 3.09045 5.5915 3.8737C3.95444 4.7671 3.26752 6.72523 3.89025 8.54262C4.46803 10.2254 5.96386 11.3268 7.67154 11.3636ZM7.64586 4.48562C9.2444 4.48562 10.4192 5.64214 10.4192 7.20864C10.4192 7.92459 10.2074 8.57322 9.74515 9.1423C8.60241 10.5558 6.54806 10.513 5.46953 9.04439C5.06508 8.49367 4.87248 7.88175 4.8789 7.20864C4.8789 5.62378 6.02805 4.48562 7.64586 4.48562Z" fill="black"/>
</g>
<path d="M16.6012 2.8913C16.6012 4.25657 15.4592 5.38261 14.0265 5.38261C12.5937 5.38261 11.4518 4.25657 11.4518 2.8913C11.4518 1.52604 12.5937 0.4 14.0265 0.4C15.4592 0.4 16.6012 1.52604 16.6012 2.8913Z" fill="#1B383E" stroke="black" stroke-width="0.8"/>
<line x1="0.5" y1="-0.5" x2="4.78988" y2="-0.5" transform="matrix(0.624822 -0.780767 0.797689 0.603069 12.7529 4.95605)" stroke="black" stroke-linecap="round"/>
<defs>
<clipPath id="clip0_1_8039">
<rect width="15.2985" height="15.6957" fill="white" transform="translate(0 3.30469)"/>
</clipPath>
</defs>
</svg>
