<svg width="229" height="154" viewBox="0 0 229 154" fill="none" xmlns="http://www.w3.org/2000/svg">
<g clip-path="url(#clip0_468_10840)">
<path d="M0 153.676V150.76L2.15732 150.292V136.289L0 135.821V132.869H2.15732H10.0675C11.7215 132.869 13.1597 133.157 14.3822 133.733C15.6046 134.309 16.5395 135.101 17.1867 136.145C17.8339 137.189 18.1934 138.377 18.1934 139.745C18.1934 141.113 17.8698 142.301 17.1867 143.345C16.5395 144.389 15.6046 145.18 14.3822 145.756C13.1597 146.332 11.7215 146.62 10.0675 146.62H7.11917V150.256L9.2765 150.724V153.64H0V153.676ZM7.15513 142.841H10.0675C11.0743 142.841 11.8653 142.553 12.3687 142.013C12.908 141.473 13.1597 140.753 13.1597 139.853C13.1597 138.953 12.908 138.197 12.3687 137.621C11.8293 137.045 11.0743 136.757 10.0675 136.757H7.11917V142.841H7.15513Z" fill="#1B383E"/>
<path d="M19.4878 153.676V150.76L21.6451 150.292V136.289L19.4878 135.821V132.869H36.0632V138.845H32.2879L32.1801 136.721H26.6429V140.969H33.2587V144.821H26.6429V149.752H32.4317L32.5396 147.52H36.279V153.64H19.4878V153.676Z" fill="#1B383E"/>
<path d="M39.2271 153.676V150.76L40.6653 150.544L46.8496 132.905H52.2789L58.4632 150.544L59.9014 150.76V153.676H52.171V150.76L53.5373 150.508L52.9261 148.24H46.2743L45.6631 150.508L47.0294 150.76V153.676H39.2271ZM47.317 144.749H51.8474L49.8339 138.449L49.6182 137.729H49.5463L49.2946 138.521L47.317 144.749Z" fill="#1B383E"/>
<path d="M70.9758 154C68.9983 154 67.2364 153.604 65.6904 152.812C64.1443 152.02 62.9218 150.868 62.0589 149.356C61.16 147.844 60.7285 146.009 60.7285 143.849V142.877C60.7285 140.897 61.124 139.133 61.951 137.585C62.778 136.037 63.9286 134.849 65.4387 133.985C66.9488 133.121 68.7466 132.689 70.796 132.689C72.2342 132.689 73.6006 132.869 74.9309 133.265C76.2253 133.661 77.4478 134.309 78.5624 135.245V140.609H74.9309L74.4275 137.549C74.1039 137.333 73.7803 137.153 73.4208 136.973C73.0612 136.829 72.7017 136.685 72.2702 136.613C71.8747 136.541 71.4432 136.469 70.9758 136.469C69.9331 136.469 68.9983 136.721 68.2072 137.225C67.4162 137.729 66.805 138.449 66.3735 139.421C65.9421 140.393 65.7263 141.545 65.7263 142.877V143.849C65.7263 145.109 65.9421 146.224 66.4095 147.196C66.8409 148.168 67.4881 148.924 68.2792 149.464C69.0702 150.004 70.005 150.292 71.0477 150.292C71.623 150.292 72.1623 150.22 72.7736 150.112C73.3489 150.004 73.9242 149.824 74.4635 149.644L74.9669 146.692H78.5984V151.912C77.7714 152.488 76.7287 152.992 75.4343 153.388C74.1399 153.784 72.6657 154 70.9758 154Z" fill="#1B383E"/>
<path d="M82.1938 153.676V150.76L84.3512 150.292V136.289L82.1938 135.821V132.869H98.7693V138.845H94.994L94.8861 136.721H89.349V140.969H95.9648V144.821H89.349V149.752H95.1378L95.2457 147.52H98.985V153.64H82.1938V153.676Z" fill="#1B383E"/>
<path d="M110.239 153.676V150.76L112.361 150.292V136.289L110.239 135.821V132.869H112.361H120.019L125.017 146.548H125.089L129.943 132.869H139.615V135.821L137.457 136.289V150.292L139.615 150.76V153.676H130.338V150.76L132.568 150.292V147.592L132.675 137.837H132.604L126.743 153.712H122.824L116.855 138.017H116.747L117.107 146.908V150.292L119.516 150.76V153.676H110.239Z" fill="#1B383E"/>
<path d="M141.736 153.676V150.76L143.175 150.544L149.359 132.905H154.788L160.972 150.544L162.411 150.76V153.676H154.68V150.76L156.047 150.508L155.435 148.24H148.784L148.172 150.508L149.539 150.76V153.676H141.736ZM149.79 144.749H154.321L152.307 138.449L152.091 137.729H152.02L151.768 138.521L149.79 144.749Z" fill="#1B383E"/>
<path d="M164.784 153.676V150.76L166.941 150.292V136.289L164.784 135.821V132.869H173.88V135.821L171.903 136.289V150.292L173.88 150.76V153.676H164.784ZM170.644 149.176L168.092 146.26L178.447 136.073V136.037L176.11 135.893V132.941H185.782V135.893L183.84 136.289L170.644 149.176ZM176.541 153.676V150.76L178.627 150.616H178.662L173.665 143.777L177.152 140.681L184.415 150.4L186.537 150.76V153.676H176.541Z" fill="#1B383E"/>
<path d="M189.341 153.676V150.76L191.499 150.292V136.289L189.341 135.821V132.869H205.917V138.845H202.141L202.034 136.721H196.496V140.969H203.112V144.821H196.496V149.752H202.285L202.393 147.52H206.132V153.64H189.341V153.676Z" fill="#1B383E"/>
<path d="M209.44 153.676V150.76L211.598 150.292V136.289L209.44 135.821V132.869H219.652C221.306 132.869 222.708 133.121 223.93 133.661C225.153 134.201 226.052 134.921 226.735 135.893C227.382 136.865 227.706 138.017 227.706 139.313C227.706 140.537 227.382 141.653 226.699 142.697C226.052 143.741 225.117 144.569 224.002 145.216C222.852 145.864 221.557 146.152 220.083 146.152L216.632 146.116V150.256L218.789 150.724V153.64H209.44V153.676ZM216.596 142.337H219.688C220.659 142.337 221.414 142.121 221.917 141.653C222.456 141.185 222.708 140.537 222.708 139.709C222.708 138.809 222.456 138.125 221.917 137.585C221.378 137.045 220.623 136.793 219.652 136.793H216.596V142.337ZM222.564 153.676L219.76 145.576L224.11 144.101L226.627 150.256L228.605 150.76V153.676H222.564Z" fill="#1B383E"/>
<path d="M122.069 13.2473C122.069 18.899 118.977 23.8308 114.446 26.4946C109.88 23.8668 106.824 18.899 106.824 13.2473C106.824 7.59561 109.916 2.66386 114.482 0C119.013 2.62786 122.069 7.59561 122.069 13.2473Z" fill="#8EB26F"/>
<path d="M153.063 33.3344C149.539 37.7622 144.074 39.7061 138.86 38.9141C136.955 33.9824 137.638 28.2227 141.161 23.7949C144.685 19.3671 150.15 17.4232 155.364 18.2152C157.269 23.1109 156.586 28.9066 153.063 33.3344Z" fill="#8EB26F"/>
<path d="M165.323 69.1525C160.397 70.5925 155.328 69.1525 151.876 65.8407C153.027 61.1969 156.55 57.2731 161.476 55.8332C166.402 54.3933 171.472 55.8332 174.923 59.1451C173.773 63.7888 170.249 67.7126 165.323 69.1525Z" fill="#8EB26F"/>
<path d="M63.6772 69.1525C68.6031 70.5925 73.6728 69.1525 77.1246 65.8407C75.974 61.1969 72.4504 57.2731 67.5245 55.8332C62.5986 54.3933 57.5289 55.8332 54.0771 59.1451C55.2277 63.7888 58.7514 67.7126 63.6772 69.1525Z" fill="#8EB26F"/>
<path d="M76.8371 33.3344C80.3607 37.7622 85.8259 39.7061 91.0395 38.9141C92.9451 33.9824 92.262 28.2227 88.7383 23.7949C85.2147 19.3671 79.7495 17.4232 74.5359 18.2152C72.6303 23.1109 73.3135 28.9066 76.8371 33.3344Z" fill="#8EB26F"/>
<path d="M111.174 34.0901V103.458H104.127V80.9957L80.2886 57.1289C81.1875 54.825 82.338 52.6291 83.7043 50.5772L104.127 71.0242V35.386C106.392 34.7741 108.729 34.3061 111.174 34.0901Z" fill="#1B383E"/>
<path d="M148.568 57.0929L124.766 80.9237V103.494H117.718V34.0901C120.127 34.3061 122.5 34.7381 124.766 35.422V70.9522L145.152 50.5412C146.519 52.5931 147.669 54.789 148.568 57.0929Z" fill="#1B383E"/>
<path d="M133.611 55.257C137.344 55.257 140.37 52.227 140.37 48.4893C140.37 44.7517 137.344 41.7217 133.611 41.7217C129.877 41.7217 126.851 44.7517 126.851 48.4893C126.851 52.227 129.877 55.257 133.611 55.257Z" fill="#D89F5B"/>
<path d="M95.0663 55.257C98.7995 55.257 101.826 52.227 101.826 48.4893C101.826 44.7517 98.7995 41.7217 95.0663 41.7217C91.333 41.7217 88.3066 44.7517 88.3066 48.4893C88.3066 52.227 91.333 55.257 95.0663 55.257Z" fill="#D89F5B"/>
<path d="M70.1493 46.3299C72.7903 46.3299 74.9313 44.1863 74.9313 41.5421C74.9313 38.8979 72.7903 36.7544 70.1493 36.7544C67.5082 36.7544 65.3672 38.8979 65.3672 41.5421C65.3672 44.1863 67.5082 46.3299 70.1493 46.3299Z" fill="#1B383E"/>
<path d="M158.707 46.3299C161.348 46.3299 163.489 44.1863 163.489 41.5421C163.489 38.8979 161.348 36.7544 158.707 36.7544C156.066 36.7544 153.925 38.8979 153.925 41.5421C153.925 44.1863 156.066 46.3299 158.707 46.3299Z" fill="#1B383E"/>
<path d="M163.382 84.7034C166.023 84.7034 168.164 82.5599 168.164 79.9157C168.164 77.2715 166.023 75.1279 163.382 75.1279C160.741 75.1279 158.6 77.2715 158.6 79.9157C158.6 82.5599 160.741 84.7034 163.382 84.7034Z" fill="#1B383E"/>
<path d="M132.532 21.5987C135.173 21.5987 137.314 19.4551 137.314 16.8109C137.314 14.1667 135.173 12.0232 132.532 12.0232C129.891 12.0232 127.75 14.1667 127.75 16.8109C127.75 19.4551 129.891 21.5987 132.532 21.5987Z" fill="#1B383E"/>
<path d="M96.3607 21.5987C99.0018 21.5987 101.143 19.4551 101.143 16.8109C101.143 14.1667 99.0018 12.0232 96.3607 12.0232C93.7196 12.0232 91.5786 14.1667 91.5786 16.8109C91.5786 19.4551 93.7196 21.5987 96.3607 21.5987Z" fill="#1B383E"/>
<path d="M65.619 84.7034C68.26 84.7034 70.4011 82.5599 70.4011 79.9157C70.4011 77.2715 68.26 75.1279 65.619 75.1279C62.9779 75.1279 60.8369 77.2715 60.8369 79.9157C60.8369 82.5599 62.9779 84.7034 65.619 84.7034Z" fill="#1B383E"/>
<path d="M150.761 76.3879C150.402 78.8358 149.791 81.1757 148.964 83.4436H130.806L137.889 76.3879H150.761Z" fill="#1B383E"/>
<path d="M98.1945 83.4436H79.9291C79.1021 81.1757 78.4909 78.8358 78.1313 76.3879H91.1112L98.1945 83.4436Z" fill="#1B383E"/>
<path d="M0 110.514V125.561H6.11242V117.57H27.9374V125.561H34.0138V117.57H55.8387V125.561H61.9512V117.57H83.7761V125.561H89.8526V117.57H111.426V125.561H117.538V117.57H139.363V125.561H145.476V117.57H167.265V125.561H173.377V117.57H195.202V125.561H201.314V117.57H222.888V125.561H229V117.57V110.514H0Z" fill="#1B383E"/>
</g>
<defs>
<clipPath id="clip0_468_10840">
<rect width="229" height="154" fill="white"/>
</clipPath>
</defs>
</svg>
