<svg width="24" height="25" viewBox="0 0 24 25" fill="none" xmlns="http://www.w3.org/2000/svg">
<mask id="mask0_148_2407" style="mask-type:alpha" maskUnits="userSpaceOnUse" x="2" y="2" width="20" height="20">
<path fill-rule="evenodd" clip-rule="evenodd" d="M2 2.5H21.4768V21.977H2V2.5Z" fill="white"/>
</mask>
<g mask="url(#mask0_148_2407)">
<path fill-rule="evenodd" clip-rule="evenodd" d="M11.739 4C7.196 4 3.5 7.695 3.5 12.238C3.5 16.781 7.196 20.477 11.739 20.477C16.281 20.477 19.977 16.781 19.977 12.238C19.977 7.695 16.281 4 11.739 4M11.739 21.977C6.369 21.977 2 17.608 2 12.238C2 6.868 6.369 2.5 11.739 2.5C17.109 2.5 21.477 6.868 21.477 12.238C21.477 17.608 17.109 21.977 11.739 21.977" fill="black"/>
</g>
<mask id="mask1_148_2407" style="mask-type:alpha" maskUnits="userSpaceOnUse" x="17" y="18" width="6" height="6">
<path fill-rule="evenodd" clip-rule="evenodd" d="M17.2397 18.207H22.2638V23.2218H17.2397V18.207Z" fill="white"/>
</mask>
<g mask="url(#mask1_148_2407)">
<path fill-rule="evenodd" clip-rule="evenodd" d="M21.514 23.2218C21.323 23.2218 21.131 23.1488 20.984 23.0028L17.46 19.4888C17.167 19.1958 17.166 18.7208 17.459 18.4278C17.751 18.1328 18.226 18.1348 18.52 18.4258L22.044 21.9408C22.337 22.2338 22.338 22.7078 22.045 23.0008C21.899 23.1488 21.706 23.2218 21.514 23.2218" fill="black"/>
</g>
</svg>
